<?xml version="1.0" encoding="UTF-8"?>
<!-- Generator: Adobe Illustrator 16.2.1, SVG Export Plug-In . SVG Version: 6.00 Build 0)  -->
<!DOCTYPE svg PUBLIC "-//W3C//DTD SVG 1.1//EN" "http://www.w3.org/Graphics/SVG/1.1/DTD/svg11.dtd">
<svg version="1.1" id="Layer_1" xmlns="http://www.w3.org/2000/svg" xmlns:xlink="http://www.w3.org/1999/xlink" x="0px" y="0px" width="20px" height="18px" viewBox="0 0 20 18" enable-background="new 0 0 20 18" xml:space="preserve">
<g>
	<path d="M17,0H3C1.343,0,0,1.343,0,3v12c0,1.656,1.343,3,3,3h14c1.657,0,3-1.344,3-3V3C20,1.343,18.657,0,17,0z M4.651,12.555v0.6   h-2v2.83H1.987V9.986h2.814l0.001,0.601h-2.15v1.968H4.651z M3.346,7.827H1.978V2.135h1.367c1.487,0,1.991,0.24,1.991,1.943   l0.001,2.03C5.337,7.188,5.017,7.827,3.346,7.827z M9.84,15.984H9.064C8.92,15.6,8.856,14.855,8.856,14.457   c0-0.6-0.239-1.111-1.022-1.111h-1.16v2.639H6.011V9.986h1.543c1.255,0,2.055,0.328,2.015,1.712   c-0.023,0.704-0.455,1.208-1.151,1.304v0.016c0.775,0.072,0.968,0.32,1.063,1.119c0.024,0.447,0.064,0.889,0.128,1.336   c0.024,0.111,0.072,0.375,0.231,0.375V15.984z M10.817,7.984h-0.775C9.897,7.6,9.834,6.856,9.834,6.457   c0-0.6-0.24-1.112-1.023-1.112h-1.16v2.639H6.987V1.987H8.53c1.255,0,2.055,0.328,2.015,1.711   c-0.022,0.704-0.455,1.208-1.151,1.303v0.016c0.776,0.072,0.968,0.32,1.063,1.119c0.024,0.448,0.063,0.888,0.128,1.335   c0.023,0.112,0.072,0.376,0.232,0.376V7.984z M14.004,15.984H10.99V9.986h2.998v0.601h-2.335v1.983h2.191v0.6h-2.191v2.215h2.351   V15.984z M18.004,15.984H14.99V9.986h2.998v0.601h-2.335v1.983h2.191v0.6h-2.191v2.215h2.351V15.984z M18.006,7.984h-0.663V3.042   c0-0.255,0.016-0.503,0-0.759h-0.017c-0.072,0.352-0.128,0.576-0.185,0.807l-1.754,4.894h-0.793L12.84,3.019   c-0.056-0.208-0.104-0.408-0.176-0.735h-0.017c0,0.256,0.017,0.52,0.017,0.775v4.925H12V1.987h1.177l1.674,4.677   c0.064,0.256,0.098,0.004,0.129,0.387h0.017c0.04-0.303,0.08-0.1,0.151-0.395l1.69-4.669h1.168V7.984z"/>
	<path d="M8.881,11.643c-0.016-1.031-0.823-1.056-1.271-1.056H6.674v2.159h1.048C8.033,12.738,8.896,12.689,8.881,11.643z"/>
	<path d="M9.857,3.642C9.842,2.611,9.034,2.587,8.586,2.587H7.65v2.159h1.048C9.01,4.738,9.874,4.689,9.857,3.642z"/>
	<path d="M2.618,2.95v4.062c0.647,0,2.017-0.029,2.017-0.573v-2.78C4.635,2.899,3.29,2.95,2.618,2.95z"/>
</g>
</svg>