<?xml version="1.0" encoding="UTF-8"?>
<!-- Generator: Adobe Illustrator 16.2.1, SVG Export Plug-In . SVG Version: 6.00 Build 0)  -->
<!DOCTYPE svg PUBLIC "-//W3C//DTD SVG 1.1//EN" "http://www.w3.org/Graphics/SVG/1.1/DTD/svg11.dtd">
<svg version="1.1" id="Layer_1" xmlns="http://www.w3.org/2000/svg" xmlns:xlink="http://www.w3.org/1999/xlink" x="0px" y="0px" width="16px" height="17px" viewBox="0 0 16 17" enable-background="new 0 0 16 17" xml:space="preserve">
<g>
	<g>
		<path d="M12.266,6.717l1.642-2.342c0.182-0.259,0.136-0.609-0.103-0.782c-0.236-0.172-0.576-0.103-0.758,0.156l-1.72,2.456    C10.312,5.735,9.188,5.466,8,5.466c-1.205,0-2.342,0.276-3.367,0.757L2.917,3.772C2.745,3.528,2.424,3.461,2.198,3.625    C1.974,3.789,1.932,4.12,2.103,4.366L3.745,6.71c-2.244,1.425-3.738,3.933-3.738,6.781c4.839,0.011,10.99,0,15.986,0    C15.993,10.646,14.503,8.143,12.266,6.717z M5.022,11.529c-0.562,0-1.016-0.453-1.016-1.016c0-0.561,0.454-1.016,1.016-1.016    c0.561,0,1.016,0.455,1.016,1.016C6.038,11.076,5.583,11.529,5.022,11.529z M11.021,11.529c-0.562,0-1.016-0.453-1.016-1.016    c0-0.561,0.454-1.016,1.016-1.016s1.017,0.455,1.017,1.016C12.038,11.076,11.583,11.529,11.021,11.529z"/>
	</g>
</g>
</svg>