<?xml version="1.0" encoding="UTF-8"?>
<!-- Generator: Adobe Illustrator 16.2.1, SVG Export Plug-In . SVG Version: 6.00 Build 0)  -->
<!DOCTYPE svg PUBLIC "-//W3C//DTD SVG 1.1//EN" "http://www.w3.org/Graphics/SVG/1.1/DTD/svg11.dtd">
<svg version="1.1" id="Layer_1" xmlns="http://www.w3.org/2000/svg" xmlns:xlink="http://www.w3.org/1999/xlink" x="0px" y="0px" width="17px" height="12px" viewBox="0 0 17 12" enable-background="new 0 0 17 12" xml:space="preserve">
<g>
	<g>
		<path d="M13.682,9.253c-0.757,0-1.369,0.614-1.369,1.373c0,0.758,0.612,1.374,1.369,1.374c0.756,0,1.365-0.616,1.365-1.374    C15.047,9.867,14.438,9.253,13.682,9.253z M5.014,9.253c-0.755,0-1.368,0.614-1.368,1.373C3.646,11.384,4.259,12,5.014,12    c0.756,0,1.369-0.616,1.369-1.374C6.383,9.867,5.77,9.253,5.014,9.253z M16.288,1.015H4.534c-0.572,0-1.04-0.206-1.04-0.457    c0-0.252-0.468-0.458-1.04-0.458H1.038c-0.572,0-1.04,0.469-1.04,1.043v0.049c0,0.574,0.468,1.043,1.04,1.043h1.291    c0.571,0,1.162,0.453,1.311,1.007l1.104,4.089c0.149,0.554,0.739,1.007,1.312,1.007h7.194c0.57,0,1.221-0.434,1.441-0.964    l2.24-5.396C17.148,1.448,16.859,1.015,16.288,1.015z"/>
	</g>
</g>
</svg>