<?xml version="1.0" encoding="UTF-8"?>
<!-- Generator: Adobe Illustrator 17.0.0, SVG Export Plug-In . SVG Version: 6.00 Build 0)  -->
<!DOCTYPE svg PUBLIC "-//W3C//DTD SVG 1.1//EN" "http://www.w3.org/Graphics/SVG/1.1/DTD/svg11.dtd">
<svg version="1.1" id="Layer_1" xmlns="http://www.w3.org/2000/svg" xmlns:xlink="http://www.w3.org/1999/xlink" x="0px" y="0px" width="75px" height="75px" viewBox="0 0 75 75" enable-background="new 0 0 75 75" xml:space="preserve">
<g>
	<g>
		<path fill-rule="evenodd" clip-rule="evenodd" d="M65.546,9.999H8.547C6.588,9.999,5,11.587,5,13.547v35.45    c0,1.959,1.588,2.956,3.547,2.956h56.999c1.959,0,3.547-0.997,3.547-2.956v-35.45C69.093,11.587,67.505,9.999,65.546,9.999z     M62.803,45.906H11.004V15.962h51.799V45.906z M46.958,62.004c0,0-0.777-0.471-1.23-2.607c-0.582-2.783-0.777-5.496-0.777-5.496    H28.753c0,0-0.194,2.713-0.776,5.496c-0.453,2.135-1.23,2.607-1.23,2.607l-2.136,2.2c0,0-0.259,0.324-0.259,0.841    c0,0.518,0.971,0.777,1.683,0.777c0.712,0,4.077,0,4.077,0h13.481c0,0,3.365,0,4.077,0c0.712,0,1.683-0.258,1.683-0.777    c0-0.518-0.259-0.841-0.259-0.841L46.958,62.004z"/>
	</g>
</g>
</svg>