<?xml version="1.0" encoding="UTF-8"?>
<!-- Generator: Adobe Illustrator 16.2.1, SVG Export Plug-In . SVG Version: 6.00 Build 0)  -->
<!DOCTYPE svg PUBLIC "-//W3C//DTD SVG 1.1//EN" "http://www.w3.org/Graphics/SVG/1.1/DTD/svg11.dtd">
<svg version="1.1" id="Layer_1" xmlns="http://www.w3.org/2000/svg" xmlns:xlink="http://www.w3.org/1999/xlink" x="0px" y="0px" width="14px" height="17px" viewBox="0 0 14 17" enable-background="new 0 0 14 17" xml:space="preserve">
<g>
	<g>
		<path d="M13.674,13.562c-0.186-0.104-0.667-0.474-0.906-0.84c-0.146-0.226,0.062-0.59-0.139-0.869    c-0.048-0.065-0.109-0.09-0.17-0.101c0.098-0.22,0.178-0.424,0.219-0.588c0.246-0.958-0.523-2.617-1.261-3.622    s-1.342-1.627-1.64-2.897C9.477,3.374,9.852,3.741,9.586,2.63C9.457,2.076,9.229,1.637,8.973,1.348    c-0.256-0.295-0.599-0.463-0.768-0.55c-0.391-0.202-1.38-0.554-2.564,0.037c-1.242,0.623-1.08,1.966-0.876,4.658    C4.817,6.218,4.096,6.7,3.471,7.649c-0.624,0.946-0.692,1.717-1.164,2.5c-0.455,0.752-0.389,0.705-0.222,1.347    c-0.024,0.022-0.051,0.039-0.076,0.063c-0.165,0.162-0.369,0.571-0.66,0.773s-1.029,0.184-1.216,0.42    c-0.184,0.237,0.007,0.579,0.003,1.214c0,0.271-0.048,0.478-0.081,0.642c-0.045,0.209-0.074,0.354,0.016,0.504    c0.165,0.266,0.43,0.33,1.947,0.636c0.812,0.161,1.579,0.581,2.092,0.622c0.515,0.037,0.625-0.128,0.938-0.396    c0.046-0.039,0.086-0.07,0.124-0.099c0.025-0.001,0.053,0.006,0.075-0.004c0.683-0.296,0.446-0.203,1.536-0.265    c1.062-0.062,1.381-0.106,2.367,0.14c0.059,0.188,0.146,0.328,0.229,0.397c0.148,0.129,0.365,0.226,0.848,0.226    c0.481,0,0.781-0.103,1.1-0.408c0.203-0.194,0.421-0.379,1.048-0.793c0.498-0.327,1.248-0.685,1.397-0.828    c0.074-0.071,0.205-0.14,0.215-0.397C13.993,13.714,13.807,13.639,13.674,13.562z M6.892,3.172    c0.101-0.218,0.314-0.523,0.767-0.485c0.295,0.021,0.409,0.078,0.614,0.426C8.49,3.477,8.486,3.788,8.409,4.068    c-0.048,0.17-0.124,0.298-0.259,0.39c-0.004-0.002-0.01-0.003-0.016-0.005c-0.123-0.056-0.268-0.099-0.42-0.14    C7.695,4.308,7.68,4.3,7.658,4.294c0.113-0.016,0.238-0.07,0.314-0.167C8.049,4.031,8.078,3.891,8.059,3.77    C8.011,3.502,7.869,3.294,7.626,3.294c-0.104,0-0.227,0.015-0.294,0.087C7.241,3.477,7.189,3.598,7.189,3.77    c0,0.117,0.018,0.258,0.055,0.367C7.201,4.11,7.159,4.086,7.108,4.049C7.1,4.043,7.082,4.04,7.071,4.034    C7.028,4.009,6.977,3.987,6.918,3.97C6.91,3.967,6.905,3.963,6.896,3.961C6.852,3.886,6.817,3.8,6.814,3.673    C6.808,3.374,6.785,3.408,6.892,3.172z M5.097,3.072C5.171,2.92,5.281,2.817,5.365,2.805C5.511,2.78,5.744,2.789,5.889,2.982    C6.041,3.184,6.142,3.29,6.142,3.601C6.144,3.768,6.119,3.872,6.08,3.964c-0.037,0.01-0.07,0.012-0.112,0.033    C5.929,4.016,5.881,4.052,5.837,4.08c0.021-0.088,0.026-0.192,0.026-0.292c0-0.134-0.045-0.252-0.106-0.336    C5.698,3.368,5.576,3.306,5.479,3.306c-0.104,0-0.178,0.041-0.236,0.127C5.158,3.552,5.181,3.686,5.181,3.779    c0,0.149,0.106,0.33,0.142,0.367c0.091,0.09,0.118,0.145,0.195,0.159C5.479,4.336,5.431,4.372,5.401,4.398    C5.366,4.427,5.337,4.449,5.306,4.474c-0.078-0.067-0.147-0.155-0.19-0.275C5.029,3.95,4.997,3.81,5.006,3.442    C5.01,3.306,5.048,3.175,5.097,3.072z M10.139,11.448c-0.037,0.06-0.059,0.101-0.072,0.14c-0.053-0.007-0.105-0.012-0.188-0.012    c-0.207,0-0.246,0.006-0.421,0.111c-0.098,0.057-0.104,0.427-0.104,0.861c0,0.29-0.002,0.604-0.021,0.885    c-0.057,0.076-0.125,0.157-0.229,0.254c-0.465,0.434-1.109,0.881-1.94,1.03c-1.475,0.265-1.837-0.124-1.921-0.204    c-0.087-0.084-0.534-0.677-0.531-0.677c-0.003,0,0.505-0.06,0.563-0.164c0.058-0.108,0.062-0.444-0.036-0.595    c-0.09-0.146-0.763-0.619-1.086-0.891c-0.308-0.262-0.508-0.406-0.702-0.562c-0.197-0.154-0.204,0.025-0.22-0.602    C3.215,10.4,3.344,10.102,3.454,9.635c0.11-0.47,0.582-1.049,0.715-1.519c0.016-0.068,0.045-0.14,0.062-0.208    C4.27,7.771,4.318,7.631,4.37,7.497c0.084-0.224,0.191-0.445,0.327-0.65c0.265-0.389,0.388-0.408,0.388-0.666    c0-0.386-0.022-0.379-0.01-0.778c0.002-0.05,0.014-0.074,0.03-0.091C5.191,5.423,5.31,5.524,5.436,5.623    c0.238,0.188,0.441,0.425,0.585,0.474C6.172,6.149,6.429,6.14,6.618,6.139c0.418-0.002,0.959-0.5,1.261-0.589    c0.213-0.065,0.344-0.162,0.428-0.307C8.432,5.4,8.438,5.708,8.7,6.11C9.046,6.632,9.027,7,9.415,7.818    C9.607,8.229,9.834,8.546,9.977,9c0.155,0.484,0.233,1.145,0.233,1.792C10.21,11.041,10.232,11.312,10.139,11.448z"/>
	</g>
</g>
</svg>