<?xml version="1.0" encoding="UTF-8"?>
<!-- Generator: Adobe Illustrator 16.2.1, SVG Export Plug-In . SVG Version: 6.00 Build 0)  -->
<!DOCTYPE svg PUBLIC "-//W3C//DTD SVG 1.1//EN" "http://www.w3.org/Graphics/SVG/1.1/DTD/svg11.dtd">
<svg version="1.1" id="Layer_1" xmlns="http://www.w3.org/2000/svg" xmlns:xlink="http://www.w3.org/1999/xlink" x="0px" y="0px" width="14px" height="17px" viewBox="0 0 14 17" enable-background="new 0 0 14 17" xml:space="preserve">
<path d="M8.968,0.586C8.516,0.815,8.143,1.104,7.85,1.452c-0.587,0.686-0.883,1.42-0.883,2.204c0,0.109,0.006,0.212,0.018,0.311  C7.898,4.043,8.704,3.662,9.4,2.824c0.576-0.708,0.865-1.47,0.865-2.286c0-0.109-0.006-0.218-0.017-0.327  C9.848,0.233,9.42,0.358,8.968,0.586z M12.553,11.445c-0.719-0.687-1.084-1.545-1.094-2.579c-0.012-1.329,0.576-2.363,1.764-3.103  c-0.664-0.969-1.66-1.508-2.988-1.617c-0.49-0.043-1.09,0.066-1.797,0.327C7.686,4.756,7.245,4.897,7.114,4.897  c-0.174,0-0.571-0.12-1.192-0.359C5.302,4.299,4.801,4.179,4.42,4.179C3.723,4.19,3.075,4.378,2.477,4.743  C1.879,5.108,1.399,5.605,1.04,6.237c-0.458,0.784-0.686,1.72-0.686,2.809c0,0.946,0.169,1.927,0.506,2.938  c0.316,0.937,0.719,1.759,1.208,2.467c0.458,0.664,0.838,1.132,1.143,1.404c0.479,0.457,0.958,0.674,1.437,0.651  c0.316-0.011,0.729-0.122,1.241-0.334c0.512-0.213,0.991-0.317,1.437-0.317c0.426,0,0.891,0.104,1.396,0.317  c0.506,0.212,0.938,0.318,1.299,0.318c0.5-0.011,0.969-0.224,1.403-0.638c0.283-0.25,0.647-0.701,1.095-1.354  c0.326-0.479,0.608-1.002,0.85-1.567c0.098-0.24,0.189-0.49,0.277-0.752C13.244,12.007,12.879,11.762,12.553,11.445L12.553,11.445z"/>
</svg>