<?xml version="1.0" encoding="UTF-8"?>
<!-- Generator: Adobe Illustrator 17.0.0, SVG Export Plug-In . SVG Version: 6.00 Build 0)  -->
<!DOCTYPE svg PUBLIC "-//W3C//DTD SVG 1.1//EN" "http://www.w3.org/Graphics/SVG/1.1/DTD/svg11.dtd">
<svg version="1.1" id="Layer_1" xmlns="http://www.w3.org/2000/svg" xmlns:xlink="http://www.w3.org/1999/xlink" x="0px" y="0px" width="75px" height="75px" viewBox="0 0 75 75" enable-background="new 0 0 75 75" xml:space="preserve">
<g>
	<g>
		<path fill-rule="evenodd" clip-rule="evenodd" d="M34.3,46.243c0,0.667,0.25,1.194,0.749,1.583c0.143,0.11,0.328,0.215,0.55,0.317    v-3.79c-0.328,0.09-0.6,0.234-0.8,0.445C34.467,45.151,34.3,45.633,34.3,46.243z M38.272,52.359v4.154    c0.233-0.072,0.424-0.161,0.569-0.267c0.494-0.365,0.741-0.995,0.741-1.891c0-0.682-0.232-1.221-0.694-1.618    C38.74,52.614,38.531,52.487,38.272,52.359z M40.012,7.949h-6.149C25.767,7.949,15,22.797,15,30.957v32.981    c0,2.242,1.818,4.06,4.06,4.06h35.924c2.242,0,4.06-1.818,4.06-4.06V30.957C59.044,22.861,48.172,7.949,40.012,7.949z     M40.676,58.352c-0.699,0.433-1.503,0.722-2.404,0.875v2.372h-0.784v0.119h-1.154v-0.119H35.6v-2.357    c-1.19-0.192-2.122-0.492-2.762-0.915c-1.356-0.911-2.022-2.466-1.998-4.662h3.212c0.111,0.999,0.266,1.669,0.464,2.01    c0.215,0.369,0.583,0.642,1.085,0.832v-5.094l-0.229-0.068c-1.515-0.444-2.583-1.063-3.206-1.855    c-0.623-0.793-0.934-1.749-0.934-2.867c0-0.738,0.121-1.408,0.363-2.011c0.242-0.602,0.581-1.122,1.017-1.558    c0.563-0.563,1.19-0.952,1.879-1.166c0.281-0.09,0.656-0.163,1.109-0.221v-1.702h2.672v1.75c0.917,0.153,1.671,0.433,2.247,0.851    c1.334,0.849,2.024,2.224,2.072,4.128h-3.128c-0.063-0.706-0.18-1.221-0.352-1.546c-0.183-0.347-0.47-0.586-0.838-0.74v4.625    c1.449,0.536,2.454,1.017,3.006,1.444c1.066,0.833,1.599,2.007,1.599,3.521C42.877,55.997,42.143,57.448,40.676,58.352z     M36.969,30.001c-4.454,0-8.065-3.611-8.065-8.065c0-4.454,3.611-8.065,8.065-8.065c4.454,0,8.065,3.611,8.065,8.065    C45.034,26.391,41.423,30.001,36.969,30.001z"/>
	</g>
</g>
</svg>