<?xml version="1.0" encoding="UTF-8"?>
<!-- Generator: Adobe Illustrator 17.0.0, SVG Export Plug-In . SVG Version: 6.00 Build 0)  -->
<!DOCTYPE svg PUBLIC "-//W3C//DTD SVG 1.1//EN" "http://www.w3.org/Graphics/SVG/1.1/DTD/svg11.dtd">
<svg version="1.1" id="Layer_1" xmlns="http://www.w3.org/2000/svg" xmlns:xlink="http://www.w3.org/1999/xlink" x="0px" y="0px" width="75px" height="75px" viewBox="0 0 75 75" enable-background="new 0 0 75 75" xml:space="preserve">
<g>
	<g>
		<path fill-rule="evenodd" clip-rule="evenodd" d="M56.967,52.401c0.008-0.048,0.142-0.105,0.054-0.161    C57.007,52.305,56.845,52.358,56.967,52.401z M56.457,39.009c-0.017,0.054-0.136,0.007-0.107,0.107    c0.178,0.034,0.163-0.118,0.349-0.134c-0.006-0.158,0.152-0.152,0.161-0.295C56.613,38.605,56.281,38.753,56.457,39.009z     M62.307,41.264c0.067,0.004,0.112-0.014,0.134-0.054c-0.059-0.021-0.035-0.127-0.107-0.134    C62.305,41.165,62.342,41.167,62.307,41.264z M37.5,7.101C20.975,7.101,7.58,20.497,7.58,37.021    c0,16.524,13.396,29.921,29.921,29.921c16.524,0,29.92-13.396,29.92-29.921C67.42,20.497,54.024,7.101,37.5,7.101z M61.797,32.784    h0.081c-0.015,0.047,0.033,0.158-0.027,0.161C61.754,32.969,61.813,32.839,61.797,32.784z M61.636,32.219h0.107    c0.069,0.155,0.055,0.323,0,0.483h-0.161C61.742,32.53,61.506,32.437,61.636,32.219z M59.543,20.626    c-0.109,0.01-0.083-0.114-0.161-0.134C59.439,20.428,59.508,20.579,59.543,20.626z M56.806,23.927v0.107h-0.107    C56.686,23.951,56.722,23.915,56.806,23.927z M55.598,17.192c-0.076-0.005-0.052,0.091-0.161,0.054    c-0.021-0.06-0.056-0.105-0.054-0.188C55.491,17.001,55.602,17.059,55.598,17.192z M53.746,25.081    c-0.107,0.009-0.159-0.037-0.161-0.134C53.705,24.927,53.757,24.972,53.746,25.081z M53.317,19.741    c0.007,0.108-0.219,0.06-0.161-0.053C53.211,19.704,53.342,19.644,53.317,19.741z M52.753,20.976    c0.068-0.148-0.034-0.125-0.054-0.242C52.839,20.591,52.968,21.005,52.753,20.976z M52.593,23.82    c-0.068-0.058-0.143-0.108-0.215-0.161c0.055-0.112,0.097-0.167,0.053-0.322c0.063-0.026,0.132-0.047,0.215-0.054    c0.123,0.319,0.404,0.435,0.322,0.832c-0.117,0.189-0.242,0.112-0.456,0.134c-0.035-0.126-0.164-0.159-0.161-0.322    c0.065,0.011,0.058-0.049,0.134-0.027c-0.01,0.09,0.047,0.115,0.08,0.161C52.643,23.992,52.592,23.933,52.593,23.82z     M49.667,24.598c0.123-0.118,0.289-0.194,0.268-0.456c0.096-0.065,0.16-0.162,0.322-0.161c-0.009-0.062,0.004-0.103,0.027-0.134    h0.161c0.042,0.155,0.218,0.175,0.188,0.403c-0.256-0.028-0.038,0.268-0.242,0.268c0.025,0.047,0.094,0.049,0.134,0.08    c-0.009,0.063-0.083,0.06-0.108,0.108c-0.016,0.047,0.079,0.111,0,0.134c0.358,0.286,0.664,0.541,1.1,0.697    c-0.068,0.248,0.194,0.371,0.322,0.51c-0.087,0.456,0.222,0.426,0.403,0.564c0.028,0.1-0.09,0.053-0.107,0.108    c0.378,0.016,0.461,0.396,0.564,0.751c0.069,0.011,0.178,0.003,0.268,0.054c-0.026,0.16,0.089,0.18,0.161,0.242    c-0.104,0.427-0.949,0.479-1.208,0.161c-0.109-0.02-0.092,0.086-0.214,0.054c-0.345-0.231-0.378-0.771-0.376-1.288    c-0.109-0.195-0.363-0.245-0.456-0.456c-0.416,0.086-0.186-0.537-0.698-0.429c0.049-0.136-0.073-0.173-0.161-0.242    c-0.083-0.072,0.07-0.102,0-0.161c-0.023-0.092-0.108,0.007-0.188-0.053C49.667,25.131,49.583,24.866,49.667,24.598z     M52.888,28.382c0.053,0.188-0.25,0.018-0.215,0.189c-0.082-0.035-0.137,0.036-0.134-0.107    C52.7,28.481,52.721,28.359,52.888,28.382z M52.485,28.436c-0.01,0.13-0.132-0.006-0.215,0.027    c-0.011-0.057,0.018-0.072,0.027-0.107C52.39,28.352,52.424,28.408,52.485,28.436z M52.27,31.173    c-0.125,0-0.188-0.063-0.188-0.188C52.182,31.011,52.253,31.066,52.27,31.173z M50.633,28.355    c-0.045,0.077-0.109-0.049-0.107-0.108h0.081C50.672,28.284,50.558,28.329,50.633,28.355z M49.426,34.742    c-0.09,0.564,0.731,0.36,0.671,0.805c0.255,0.174,0.284,0.575,0.403,0.886c0.098,0.099,0.225,0.168,0.268,0.322    c0.115,0.057,0.163,0.126,0.322,0.081c0.067,0.05,0.064,0.186,0.188,0.107c0.178,0.359,0.353,0.721,0.725,0.886    c0.124,0.37,0.413,0.68,0.403,1.1c0.008,0.037,0.067,0.022,0.107,0.027c0.081,0.321,0.204,0.601,0.349,0.859    c-0.148-0.014-0.199,0.07-0.322,0.08c-0.075-0.157-0.156-0.309-0.349-0.349c0.019-0.082-0.047-0.079-0.027-0.161    c-0.112-0.013-0.205-0.045-0.215-0.161c-0.292-0.035-0.867-0.115-0.832-0.483c-0.004-0.05-0.091-0.017-0.107-0.054    c-0.02-0.373-0.235-0.553-0.349-0.832c-0.083,0.003-0.128-0.033-0.188-0.053c0.008-0.179-0.127-0.213-0.295-0.215    c-0.056-0.077-0.068-0.201-0.161-0.241c0.078-0.139-0.12-0.185-0.027-0.322c-0.193-0.338-0.118-0.772-0.51-0.94    c-0.011-0.051-0.077-0.048-0.054-0.134c-0.279,0.029-0.25-0.251-0.403-0.349c0.019-0.117-0.046-0.151-0.027-0.268    c-0.034-0.074-0.137-0.078-0.188-0.134v-0.081c-0.138-0.103-0.257-0.226-0.295-0.429c-0.16-0.162-0.359-0.285-0.402-0.564    c-0.117-0.132-0.261-0.196-0.242-0.402c0.07-0.073,0.081,0.032,0.161,0.026c0.077-0.03,0.1-0.115,0.107-0.215h0.268    C48.756,33.986,49.011,34.384,49.426,34.742z M52.109,39.52c-0.076-0.005-0.115-0.047-0.107-0.134    C52.064,39.403,52.115,39.433,52.109,39.52z M50.284,44.913c-0.185,0.039-0.072-0.195-0.161-0.188    c0.026-0.063,0.076-0.103,0.107-0.161C50.382,44.659,50.187,44.834,50.284,44.913z M49.479,52.427    c-0.049,0.035-0.136-0.024-0.215,0.027c-0.011-0.301-0.084-0.479-0.107-0.832c0.206-0.127-0.001-0.392,0.134-0.564    c-0.029-0.078-0.086-0.129-0.134-0.188c0.021-0.05,0.045-0.098,0.054-0.161c0.402,0.03,0.093,0.634,0.322,0.805    C49.36,51.759,49.348,52.119,49.479,52.427z M48.433,47.892c0.006-0.093,0.068-0.156-0.08-0.134    c0.055-0.182,0.051-0.278,0.134-0.402c-0.03-0.068-0.045-0.152-0.107-0.188c0.018-0.098,0.102-0.131,0.134-0.215    c0.069,0.003,0.038,0.105,0.107,0.108c0.035-0.072,0.118-0.097,0.161-0.161c0.015-0.06-0.051-0.038-0.054-0.081    c0.069-0.217,0.426-0.147,0.591-0.268c0.083,0.033,0.104,0.128,0.161,0.187c-0.096,0.228-0.044,0.531-0.322,0.618    c0.083,0.032,0.08-0.008,0.054,0.134c-0.117-0.077-0.017,0.049-0.107,0.08c-0.021,0.101,0.143,0.018,0.107,0.134    C49.037,47.79,48.594,47.718,48.433,47.892z M48.594,50.227c-0.161,0.101-0.353-0.066-0.268-0.215    C48.451,50.048,48.598,50.061,48.594,50.227z M47.144,48.885c-0.006-0.096,0.081-0.098,0.081-0.187    c0.271,0.149,0.278,0.502,0.268,0.805c-0.048,0.024-0.068,0.075-0.161,0.053c0.12-0.179-0.235-0.421-0.081-0.617    C47.228,48.848,47.192,48.936,47.144,48.885z M47.306,49.609c0.168-0.017,0.225,0.079,0.268,0.188    c0.11-0.068,0.101,0.032,0.188,0.053c-0.074,0.388,0.228,0.399,0.268,0.671c-0.091,0.008-0.154,0.043-0.268,0.027    c0.014-0.253-0.147-0.326-0.107-0.483c-0.156,0.018-0.273-0.153-0.376-0.268C47.266,49.713,47.327,49.703,47.306,49.609z     M47.896,46.255c0.001-0.088,0.107-0.28,0.268-0.295c0.016,0.087-0.018,0.125-0.027,0.188    C47.96,46.087,48.045,46.287,47.896,46.255z M48.755,26.96c-0.083,0.132-0.239,0.191-0.322,0.322c-0.615-0.138-1.025,0.39-1.449,0    c-0.252,0.011-0.577-0.083-0.859-0.054c-0.236,0.149-0.522,0.247-0.617,0.537c-0.524,0.009-1.239,0.145-1.288-0.537    c-0.004-0.031-0.049-0.023-0.081-0.027v-0.269c0.056,0.011,0.071-0.019,0.107-0.026c-0.023-0.467,0.191-0.609,0.107-0.993    c0.092-0.173,0.327-0.297,0.242-0.563c0.145,0.037,0.07-0.145,0.134-0.188c0.09-0.027,0.042,0.083,0.054,0.134    c0.086,0.039,0.225,0.025,0.349,0.026c-0.087,0.225,0.215,0.211,0.403,0.242c0.022,0.12-0.077,0.12-0.107,0.188    c0.115,0.09,0.261,0.15,0.43,0.188c-0.023,0.103-0.051,0.208,0.08,0.214c0.106-0.1,0.228-0.183,0.322-0.295    c-0.167-0.083-0.182-0.319-0.376-0.376c0.057-0.069,0.096-0.154,0.107-0.268c0.385-0.129,0.548-0.609,1.073-0.51    c-0.042,0.154-0.172,0.221-0.242,0.349c0.032,0.049,0.14,0.021,0.188,0.053c-0.025,0.133,0.033,0.182,0.08,0.242    c-0.097,0.081-0.13,0.228-0.215,0.322c0.016,0.216,0.334,0.131,0.456,0.241c0.417,0.05,0.72,0.44,1.208,0.51    C48.62,26.594,48.754,26.71,48.755,26.96z M44.166,28.275c-0.003-0.209,0.181-0.231,0.295-0.322c0.158,0.081,0.219,0.068,0.376,0    c0.054,0.18,0.011,0.151,0.054,0.295C44.704,28.245,44.443,28.382,44.166,28.275z M44.3,28.892    c-0.084,0.012-0.12-0.024-0.107-0.107C44.277,28.772,44.312,28.808,44.3,28.892z M44.166,19.553    c0.043,0.002,0.102-0.013,0.107,0.026c-0.095,0.1-0.047,0.061-0.027,0.215c-0.11,0.029-0.069-0.092-0.134-0.107    C44.092,19.604,44.205,19.655,44.166,19.553z M44.702,20.278h0.081v0.107C44.694,20.412,44.695,20.348,44.702,20.278z     M47.708,12.763h0.134c0,0.045,0.087,0.196-0.027,0.188c0.048,0.073,0.098-0.078,0.214-0.027    c-0.007,0.088-0.056,0.237,0.107,0.215c-0.012,0.128-0.012,0.113,0,0.241c-0.102-0.075-0.232,0.075-0.295-0.107    c-0.031,0.004-0.022,0.049-0.027,0.08h-0.134v-0.161h0.215c-0.014-0.021-0.028-0.043-0.027-0.08    c-0.064,0.016-0.122,0.038-0.215,0.027C47.627,12.968,47.713,12.911,47.708,12.763z M47.628,14.32    c-0.084,0.012-0.12-0.023-0.107-0.107C47.604,14.2,47.64,14.236,47.628,14.32z M47.574,12.924v0.134    c-0.099,0.019-0.119-0.042-0.107-0.134H47.574z M47.386,12.495c-0.02,0.117-0.265,0.095-0.322,0.027    C47.104,12.44,47.346,12.418,47.386,12.495z M47.333,14.938c0.019,0.099-0.042,0.118-0.134,0.107v-0.081    C47.229,14.942,47.27,14.928,47.333,14.938z M47.144,12.737c-0.123,0.025-0.14-0.057-0.134-0.161    C47.134,12.551,47.151,12.633,47.144,12.737z M47.064,14.964c-0.081-0.018-0.162-0.034-0.161-0.134    C46.984,14.848,47.065,14.864,47.064,14.964z M46.286,14.938c0.055-0.07,0.128-0.122,0.188-0.189    c0.09,0.094,0.185-0.018,0.322-0.026c0.024,0.048,0.075,0.068,0.054,0.161h-0.161c0.116,0.099,0.253,0.177,0.456,0.188    c-0.122,0.188,0.076,0.18,0.107,0.349c-0.043-0.007-0.046,0.026-0.08,0.027c0.059-0.014,0.112,0.066,0.242,0.053v0.215h-0.107    c0.073,0.116-0.043,0.113-0.027,0.242h-0.188c0.013-0.104-0.196-0.236-0.054-0.295c-0.046-0.151-0.211-0.182-0.268-0.322    c-0.042,0.012-0.023,0.084-0.107,0.054c0.01-0.153-0.14-0.146-0.134-0.296c-0.135-0.023-0.18,0.007-0.349,0    c-0.037-0.079-0.072-0.16-0.054-0.295C46.232,14.794,46.284,14.84,46.286,14.938z M46.098,14.938    c-0.136-0.062-0.156-0.08-0.322-0.027c0.007-0.239-0.295-0.17-0.295-0.403C45.771,14.462,46.066,14.637,46.098,14.938z     M45.776,12.791c0.084-0.012,0.12,0.023,0.107,0.107h-0.107V12.791z M35.471,12.629c-0.027,0.053-0.067,0.094-0.107,0.134    c-0.113-0.111-0.39-0.029-0.429,0.027c-0.075,0.012,0.021-0.146-0.054-0.134C35.125,12.538,35.19,12.675,35.471,12.629z     M35.364,13.166v0.108c-0.14-0.013-0.159-0.145-0.322-0.134C35.112,12.915,35.21,13.172,35.364,13.166z M33.378,10    c-0.041,0.037-0.185,0.027-0.161-0.081C33.297,9.919,33.38,9.916,33.378,10z M30.962,10.51c0.44-0.021,0.769-0.419,1.261-0.376    c0.041-0.04,0.041-0.12,0.134-0.108c-0.101,0.147,0.612-0.021,0.644-0.081c0.064,0.017,0.125,0.036,0.134,0.107    c-0.426,0.117-0.683,0.241-1.1,0.349c0.088,0.121,0.174,0.062,0.295,0.027c0.022,0.031,0.035,0.072,0.027,0.134    c0.113,0.042-0.006-0.149,0.107-0.107c-0.023,0.112,0.052,0.126,0.054,0.214c-0.215-0.01-0.432-0.02-0.483,0.134    c-0.106-0.066,0.003-0.089,0-0.188c-0.36,0.125-0.703-0.033-1.073,0.053V10.51z M30.211,10.751c0.062-0.008,0.03,0.077,0.08,0.081    c0.05-0.004,0.016-0.091,0.054-0.108c0.094,0.141,0.418-0.312,0.51,0c-0.159,0.056-0.26,0.17-0.376,0.269    c-0.268-0.015-0.485,0.032-0.644,0.188c-0.039-0.033-0.026-0.118-0.134-0.081C29.772,10.912,30.165,11.025,30.211,10.751z     M28.386,11.529c0.126,0.026,0.171-0.167,0.295-0.054c0.021,0.102-0.127,0.034-0.188,0.054c-0.022,0.093,0.04,0.103,0.027,0.188    c-0.122-0.05-0.037,0.107-0.134,0.081C28.317,11.72,28.398,11.631,28.386,11.529z M27.849,13.327    c0.108-0.01-0.014,0.211,0.134,0.161c0.018,0.089-0.045,0.098-0.107,0.108C27.894,13.485,27.743,13.429,27.849,13.327z     M27.474,13.864v0.054h-0.322C27.162,13.802,27.377,13.892,27.474,13.864z M26.857,13.971c0.082-0.041,0.082,0.175,0,0.134V13.971    z M26.803,14.883c-0.003,0.069-0.039,0.105-0.107,0.108C26.683,14.907,26.719,14.871,26.803,14.883z M26.561,14.079    c0.148-0.022,0.112,0.166,0,0.161C26.509,14.189,26.553,14.142,26.561,14.079z M26.669,15.045v0.108h-0.107    C26.478,15.078,26.595,14.961,26.669,15.045z M26.454,14.025c0.103-0.012,0.043,0.202-0.054,0.161    C26.366,14.08,26.489,14.131,26.454,14.025z M26.347,15.313c0.001-0.133,0.059-0.21,0.134-0.268    C26.534,15.126,26.446,15.295,26.347,15.313z M26.32,14.158c0.062-0.008,0.03,0.078,0.081,0.081    c-0.07,0.078-0.062,0.068-0.188,0.08C26.18,14.197,26.307,14.235,26.32,14.158z M25.595,13.676    c0.031,0.023,0.072,0.036,0.134,0.027c-0.014,0.021-0.028,0.044-0.027,0.08h-0.161C25.555,13.744,25.581,13.716,25.595,13.676z     M18.859,17.701c0.024-0.044-0.041-0.142,0.081-0.107c-0.048-0.051-0.177-0.02-0.161-0.134c0.095-0.094,0.086-0.128,0.134-0.268    c0.094,0.013,0.135,0.094,0.161-0.027c0.105-0.006,0.097,0.1,0.134,0.161c0.056-0.008,0.007-0.119,0.054-0.135h0.134    c0.052,0.122-0.078,0.148-0.107,0.188c-0.144,0.193-0.226,0.544-0.51,0.59c-0.036,0.008-0.022,0.067-0.027,0.107h-0.134    C18.578,17.874,18.786,17.843,18.859,17.701z M18.054,18.479c0.02-0.083-0.074-0.052-0.054-0.134    c0.072-0.071,0.284-0.003,0.242-0.188c0.157,0.04,0.087,0.307,0.161,0.43c-0.077,0.005-0.146,0.004-0.134-0.081    c-0.17,0.086-0.218,0.177-0.402,0.134C17.855,18.513,17.945,18.487,18.054,18.479z M18.296,18.909    c0.005,0.229-0.205,0.242-0.215,0.457c-0.085,0.03-0.061,0.003-0.161,0c-0.012-0.084,0.068-0.076,0.107-0.107    C18.022,19.236,18,19.231,18,19.204c-0.112,0.058-0.189,0.151-0.349,0.161c-0.072-0.238,0.232-0.391,0.376-0.403    c-0.029-0.105,0.193-0.153,0.107-0.323c0.032-0.031,0.095-0.03,0.161-0.027c0.011,0.088,0.075,0.122,0.08,0.215    c-0.084,0.031-0.065-0.042-0.107-0.053c-0.055,0.008-0.071,0.053-0.107,0.08C18.196,18.925,18.217,18.94,18.296,18.909z     M17.679,20.25c-0.071,0-0.153,0.01-0.188-0.026c0.043-0.123-0.008-0.173,0-0.322c0.06-0.018,0.134-0.08,0.188-0.027    C17.692,20.04,17.651,20.14,17.679,20.25z M17.786,18.668v0.107c-0.065-0.011-0.058,0.049-0.134,0.027    c0.014,0.021,0.028,0.043,0.027,0.081c-0.095,0.012-0.094,0.12-0.215,0.107c0.021,0.024,0.029,0.061,0.027,0.107    c-0.132,0.011-0.203,0.083-0.215,0.214c-0.063,0.001-0.079-0.046-0.161-0.026C17.318,19.059,17.515,18.826,17.786,18.668z     M16.954,19.902c0.096,0.103,0.165-0.019,0.268,0.027c0.008,0.109,0.046,0.186,0.054,0.295c-0.14,0.053-0.348,0.054-0.483-0.08    C16.859,20.075,16.929,20.011,16.954,19.902z M15.558,20.385c-0.047,0.052-0.032,0.165-0.134,0.161    C15.421,20.445,15.477,20.402,15.558,20.385z M14.029,22.8c0,0.089-0.045,0.134-0.134,0.134    C13.846,22.878,13.932,22.793,14.029,22.8z M10.111,33.267c0.017,0.008,0.103,0.066,0.107,0c0.03,0.112,0.019,0.249-0.027,0.375    c-0.031-0.022-0.072-0.035-0.134-0.026C10.071,33.452,10.053,33.454,10.111,33.267z M10.218,35.199    c-0.149,0.294-0.073,0.888-0.188,1.288c-0.11,0.003-0.005-0.21-0.081-0.242v-0.617c0.127-0.621,0.057-1.382,0.242-1.879    c0.18,0.323,0.011,0.87,0,1.369c0.084,0.028,0.138,0.005,0.134,0.161C10.239,35.302,10.27,35.209,10.218,35.199z M10.406,35.252    c-0.108,0.007-0.06-0.219,0.054-0.161C10.443,35.146,10.503,35.278,10.406,35.252z M10.701,34.608    c0.007-0.11,0.069-0.163,0.107-0.242c0.059-0.005,0.085,0.022,0.08,0.081C10.765,34.424,10.908,34.61,10.701,34.608z     M11.131,37.775h0.107C11.269,37.868,11.088,37.9,11.131,37.775z M11.131,37.238V37.13c0.084-0.012,0.12,0.023,0.107,0.108H11.131    z M11.587,35.816c-0.051-0.011-0.115-0.01-0.107-0.08c0.035-0.034,0.099-0.034,0.134,0C11.599,35.756,11.586,35.779,11.587,35.816    z M12.553,48.831c0.116-0.035,0.085,0.076,0.134,0.107C12.63,49.019,12.558,48.891,12.553,48.831z M64.857,38.66    c0.005,0.69-0.028,1.136-0.107,1.691c-0.008,0.056-0.068,0.106-0.08,0.161c-0.001,0.002,0.002,0.112,0,0.134    c-0.011,0.13,0.018,0.327,0,0.537c0.026,0.098-0.131,0.012-0.081,0.134c-0.02,0.306-0.117,0.499-0.08,0.752    c-0.011,0.052-0.123,0.002-0.08,0.107c-0.078,0.701-0.302,1.245-0.429,2.04c-0.111,0.065-0.101,0.22-0.134,0.349    c-0.055,0.214-0.141,0.455-0.107,0.671c-0.32,0.279-0.281,0.919-0.564,1.235c-0.048,0.455-0.343,0.799-0.349,1.208    c-0.336,0.231-0.243,0.831-0.564,1.02v0.268c-0.04-0.042-0.153-0.039-0.134,0.054c-0.078,0.31-0.353,0.555-0.349,0.858    c-0.491,0.529-0.714,1.326-1.207,1.852c0.021,0.111-0.041,0.138-0.027,0.241c-0.211,0.031-0.242,0.241-0.295,0.429    c-0.051,0.012-0.162-0.037-0.134,0.053c-0.12,0.22-0.212,0.468-0.429,0.591v0.215c-0.055,0.016-0.187-0.044-0.161,0.053    c-0.032,0.123-0.282,0.244-0.134,0.376c-0.071,0-0.153-0.01-0.188,0.027c-0.056,0.302-0.388,0.328-0.403,0.671    c-0.2,0.046-0.308,0.26-0.429,0.402c-0.37,0.432-0.76,0.899-1.207,1.288c-0.043,0.064-0.043,0.172-0.081,0.242    c-0.224,0.027-0.307,0.194-0.376,0.376c-0.337,0.091-0.501,0.357-0.698,0.59c-0.248,0.173-0.511,0.331-0.671,0.591    c-0.591,0.366-1.02,0.894-1.637,1.234c-0.059,0.004-0.011,0.115-0.027,0.161c-0.053-0.053-0.153-0.017-0.215,0    c-0.289,0.364-0.822,0.484-1.1,0.859c-0.101-0.021-0.128,0.033-0.215,0.027c-0.033,0.11-0.204,0.082-0.215,0.214    c-0.831,0.431-1.607,0.916-2.469,1.315c-0.085,0.004-0.068,0.111-0.107,0.161c-0.089-0.001-0.179,0-0.268,0    c-2.201,1.114-4.915,1.879-7.541,2.335c-0.258-0.073-0.281,0.025-0.617-0.027c-0.102,0.015-0.087,0.146-0.215,0.135    c-0.28,0.002-0.405,0.013-0.671,0c-0.222,0.137-0.604,0.117-0.993,0.134c-0.743,0.033-1.634-0.046-2.335,0.027h-0.886    c-0.338-0.135-0.875,0.045-1.1-0.161c-0.187,0.055-0.716,0.053-0.832-0.135c-0.142,0.011-0.317,0.166-0.403,0    c-0.806-0.01-1.613-0.316-2.415-0.375c0.007-0.044-0.025-0.047-0.027-0.081c-0.621-0.085-1.109-0.305-1.718-0.403    c-0.875-0.332-1.766-0.649-2.657-0.966v-0.081c-0.338-0.029-0.491-0.242-0.832-0.268c0.017-0.16-0.154-0.133-0.295-0.134    c0.011-0.056-0.018-0.071-0.027-0.108c-0.477-0.248-1.035-0.415-1.423-0.751h-0.215c-0.009-0.071-0.067-0.094-0.08-0.161    c-0.452-0.129-0.774-0.389-1.073-0.671c-0.678-0.271-1.131-0.765-1.744-1.1c0.003-0.048-0.033-0.057-0.027-0.108    c-0.617-0.269-0.963-0.808-1.53-1.127c-0.026-0.117-0.13-0.156-0.161-0.268h-0.134c-0.363-0.451-0.853-0.774-1.234-1.207    c-0.047-0.034-0.07-0.091-0.161-0.081c-0.068-0.325-0.281-0.506-0.483-0.698c0.227-0.188-0.07-0.453,0-0.671    c-0.008-0.036-0.067-0.022-0.107-0.027c0.017-0.064,0.016-0.118,0.081-0.188c-0.062-0.108-0.059-0.281-0.054-0.456    c-0.076-0.112-0.248-0.178-0.161-0.376c-0.162-0.231-0.311-0.559-0.295-0.886c-0.051-0.051-0.049,0.016-0.134,0    c0.001-0.063-0.046-0.079-0.027-0.161c0.3-0.025,0.593,0.203,0.698-0.134c0.277,0.023,0.278,0.173,0.349,0.375    c0.074,0.012,0.025-0.1,0.081-0.107c0.092,0.015,0.196,0.019,0.188,0.134c0.043-0.147,0.209-0.004,0.268-0.134    c-0.115-0.197-0.113-0.549,0.054-0.645c-0.013-0.274-0.208-0.492,0-0.698c-0.085-0.21-0.178-0.555-0.134-0.805    c-0.157-0.239-0.257-0.596-0.215-0.886c0.045-0.035,0.09-0.071,0.188-0.054c0.106-0.323,0.269-0.589,0.456-0.831    c0.024-0.021,0.06-0.029,0.107-0.027c0.111-0.224,0.282-0.369,0.242-0.564c-0.031-0.146,0.013-0.405,0.027-0.563    c-0.157-0.229-0.266-0.471-0.215-0.805c-0.027,0.017-0.028,0.062-0.081,0.054c0.008-0.103-0.116-0.156,0-0.215    c-0.041-0.066-0.22,0.006-0.215-0.108c-0.058,0.06-0.169,0.049-0.107-0.054c-0.142-0.036-0.244-0.114-0.376-0.161    c-0.03-0.084-0.012-0.071,0.027-0.134c-0.385-0.08-0.342-0.589-0.671-0.725c-0.03-0.084-0.013-0.07,0.027-0.134    c-0.172,0.002-0.217-0.123-0.268-0.242c-0.262-0.042-0.463-0.146-0.537-0.376c-0.056,0.089-0.174,0.079-0.107-0.054    c-0.325-0.096-0.496-0.345-0.778-0.483c0.099-0.072-0.046-0.149,0-0.322c-0.133-0.165-0.36-0.338-0.51-0.402    c0.016-0.086-0.05-0.083,0-0.134c-0.252-0.079-0.291-0.37-0.59-0.403c0.029-0.286-0.303-0.424-0.456-0.617    c-0.084-0.008,0.068,0.078-0.027,0.081c-0.11,0.029-0.069-0.092-0.134-0.107c0.011-0.096,0.121-0.094,0.188-0.135    c-0.021-0.023-0.029-0.06-0.027-0.107c0.164-0.052,0.141-0.37,0-0.483c-0.05-0.222-0.111-0.335-0.188-0.483    c0.079-0.289-0.032-0.638,0.027-0.858c-0.264-0.191-0.203-0.595-0.456-0.752c-0.08-0.305-0.33-0.439-0.456-0.697    c-0.395-0.07-0.384-0.546-0.59-0.805c0.131-0.409-0.107-0.843-0.268-1.046c0.023-0.022,0.016-0.074,0.054-0.081    c-0.011-0.087-0.112-0.085-0.134-0.161c0.171-0.291,0.13-0.736,0.268-0.966c-0.084-0.068-0.301-0.145-0.376-0.134    c-0.003-0.105-0.171-0.369-0.107-0.536h-0.081c-0.028,0.079-0.065,0.149-0.081,0.242c-0.155,0.002-0.152-0.153-0.268-0.188    c0.069-0.188-0.009-0.414-0.188-0.376c-0.112-0.193,0.103-0.29,0.054-0.51c-0.003-0.068-0.1-0.043-0.134-0.081    c0.016-0.108,0.082-0.168,0.054-0.322c0.084-0.013,0.071,0.073,0.134,0.081c0.109-0.12-0.093-0.156-0.054-0.295    c-0.026,0.045-0.084,0.079-0.134,0.027c-0.055,0.082-0.012,0.107-0.107,0.161c-0.128-0.006-0.097-0.171-0.134-0.268    c0.148-0.01,0.293-0.227,0.134-0.376c-0.056,0.015-0.076,0.066-0.161,0.054c-0.004-0.05-0.018-0.09-0.054-0.107    c-0.162-0.005-0.198,0.117-0.161,0.242c-0.043,0.007-0.046-0.026-0.081-0.027c-0.016,0.191,0.042,0.454-0.161,0.456    c-0.064-0.445-0.031-0.665-0.054-1.046c-0.004-0.031-0.049-0.023-0.081-0.027c0.043-0.067,0.02-0.303,0.107-0.241    c-0.042-0.299,0.136-0.422,0.027-0.698c0.035-0.032,0.042-0.01,0.081,0c0.046-0.11-0.052-0.44,0.134-0.403    c-0.016-0.055,0.043-0.186-0.054-0.161c0.198-0.335,0.162-0.855,0.403-1.154c-0.055-0.425,0.215-0.653,0.107-1.019h0.081    c-0.101-0.243,0.248-0.561,0.188-0.859h0.08c-0.067-0.24,0.117-0.452,0.161-0.671c-0.004-0.031-0.049-0.022-0.081-0.027    c0.027-0.089,0.108-0.091,0.161-0.026c0.138-0.211,0.123-0.574,0.376-0.671c-0.011,0.141,0.035,0.339-0.054,0.403    c0.107,0.03,0.011,0.205,0.054,0.242c0.217-0.152,0.155-0.526,0.134-0.806c-0.105-0.015-0.032,0.148-0.161,0.107    c-0.005-0.57,0.348-0.786,0.322-1.234c0.068,0.029,0.138-0.092,0.134,0.027c0.107-0.609,0.644-1.114,0.698-1.771    c0.301-0.175,0.363-0.534,0.591-0.725c-0.023-0.031-0.036-0.072-0.027-0.134c0.083-0.018,0.052-0.018,0.134,0    c0.013-0.057-0.039-0.052-0.081-0.054c0.027-0.062,0.092-0.086,0.188-0.081v0.188c-0.056-0.011-0.071,0.018-0.107,0.026    c0.004,0.467-0.291,0.684-0.322,1.154c-0.174,0.13-0.184,0.424-0.295,0.617c-0.2-0.03-0.091,0.249-0.242,0.269    c0.117,0.063-0.035,0.178-0.107,0.215c0.037,0.043,0.095,0.066,0.08,0.161c-0.213-0.025-0.128,0.248-0.268,0.295    c0.145,0.115-0.034,0.257,0.081,0.349c0.057-0.027-0.069-0.181,0.107-0.134c0.037-0.538,0.475-0.719,0.456-1.261    c0.274-0.057,0.182-0.48,0.429-0.564c0.182-0.51,0.617-0.838,1.127-0.939c0.046-0.01,0.051,0.021,0.054,0.054    c0.069-0.065,0.085-0.183,0.134-0.268c0.048,0.006,0.135-0.027,0.107,0.053c0.077-0.057,0.122-0.147,0.134-0.268    c0.144-0.07,0.254-0.174,0.241-0.402c0.088-0.037,0.148-0.103,0.161-0.215c0.102-0.005,0.169-0.045,0.188-0.134    c0.138,0.019-0.005,0.133-0.027,0.161c0.185,0.02,0.298-0.253,0.402-0.403c0.095,0.003,0.007,0.039,0.054,0.107    c0.115-0.127,0.301-0.182,0.376-0.349c0.105-0.021,0.139,0.099,0.215,0.027c0.02-0.083-0.092-0.033-0.054-0.134    c0.061,0.007,0.101-0.006,0.107-0.054c0.031,0.154,0.318,0.146,0.295,0.269c0.209-0.364,0.443-0.698,1.047-0.725    c0.002,0.073-0.045,0.054,0,0.107c0.109-0.062,0.24-0.073,0.349-0.188c0.119,0.042,0.21,0.112,0.376,0.107    c-0.007,0.083-0.027,0.152-0.054,0.215c-0.184-0.133-0.292,0.13-0.483,0.054c-0.122,0.057-0.093,0.265-0.188,0.349    c0.152,0.052,0.408-0.164,0.483-0.189c0.109-0.007-0.005,0.037,0.027,0.108c0.115-0.035,0.314,0.008,0.429,0.054    c0.138-0.149,0.269-0.097,0.483-0.134c0.02-0.082-0.046-0.079-0.027-0.161c0.113-0.012,0.119-0.131,0.188-0.188    c-0.138,0.112-0.336,0.236-0.483,0.188c-0.06-0.049-0.084-0.206-0.054-0.268c0.097-0.025,0.037,0.106,0.054,0.161    c0.096-0.042,0.084-0.092,0.188-0.161c0.005-0.058-0.095-0.012-0.134-0.027c0.043-0.141-0.037-0.301,0.08-0.321    c0.008-0.062-0.078-0.03-0.08-0.081c-0.019-0.082,0.046-0.08,0.027-0.161c0.122-0.013,0.159-0.109,0.268-0.134    c-0.058-0.076-0.13-0.251-0.081-0.349h0.107c0.059,0.056-0.023,0.087,0.027,0.134c0.25,0.095,0.227-0.117,0.403-0.16    c0.013-0.121-0.014-0.201-0.027-0.295c-0.177-0.031-0.287-0.075-0.429-0.081v-0.107c0.133-0.091,0.421-0.026,0.483-0.188    c0.122,0.012,0.22,0.049,0.349,0.054c0.127,0.283,0.296,0.527,0.537,0.697c0.187-0.021,0.529-0.336,0.698-0.053    c-0.232,0.251-0.62,0.345-0.832,0.618c-0.107-0.023-0.147,0.077-0.295,0.08c-0.059,0.005-0.058,0.068-0.054,0.135    c-0.151,0.019-0.272,0.068-0.349,0.161c0.121,0.228,0.384,0.314,0.456,0.59c-0.076,0.062-0.124,0.091-0.242,0.054    c0.005,0.13,0.095,0.01,0.107,0.134c0.063-0.053,0.109-0.124,0.242-0.107c-0.008,0.043,0.025,0.046,0.027,0.08    c-0.011,0.078-0.092,0.087-0.134,0.134c0.071,0.059,0.097,0.103,0.027,0.188c0.242,0.009,0.435-0.268,0.537-0.403    c0.007-0.079-0.061-0.083-0.054-0.161c0.115,0.016,0.109-0.088,0.214-0.081c0.019-0.072-0.055-0.051-0.081-0.08    c0.03-0.114,0.117-0.169,0.242-0.188c0.026-0.13-0.09-0.245,0.054-0.268c-0.064-0.043-0.162-0.053-0.215-0.107    c0.064-0.112,0.096-0.154,0.027-0.296c0.084,0.014,0.105-0.059,0.161,0c-0.033-0.177,0.272-0.174,0.295-0.375    c0.069,0.065,0.147-0.012,0.188-0.054c0.012-0.074-0.146,0.021-0.134-0.053c-0.013-0.136,0.057-0.035,0.107-0.053    c0.251-0.093,0.413-0.411,0.644-0.564c-0.057-0.172,0.032-0.339-0.054-0.456c0.118-0.012,0.088,0.081,0.188,0.027    c0.104-0.034-0.017-0.137,0.081-0.188c-0.026-0.037-0.09-0.035-0.107-0.081c-0.028-0.215,0.173-0.424,0.134-0.617    c0.115-0.064,0.233-0.125,0.268-0.268h0.134c0.066-0.038,0.047-0.093,0.027-0.161c0.207-0.15,0.329-0.255,0.429-0.537    c0.301-0.102,0.375-0.43,0.617-0.59c-0.264,0.024-0.561,0.242-0.859,0.322c-0.122,0.006-0.171-0.061-0.161-0.188    c0.034-0.037,0.127-0.016,0.161-0.054c-0.012-0.373,0.502-0.443,0.751-0.644c-0.031-0.04-0.033-0.11-0.08-0.135    c0.076-0.208,0.435-0.253,0.402-0.483c0.061,0.008,0.101-0.007,0.107-0.053c-0.118-0.116-0.044-0.242,0-0.375    c-0.06-0.057-0.129,0.028-0.241,0c-0.093,0.113-0.295,0.259-0.43,0.241c-0.065,0.052-0.106,0.126-0.161,0.188    c-0.136-0.01-0.164,0.086-0.242,0.134c-0.729,0.053-0.866,0.754-1.503,0.966c-0.031,0.005-0.023,0.049-0.027,0.081    c-0.285-0.005-0.419,0.153-0.644,0.027c-0.078,0.023-0.03,0.04-0.027,0.107c-0.38,0.157-0.583,0.491-0.939,0.671    c-0.111,0.013,0.026-0.072-0.081-0.081c-0.079,0.023,0.035,0.068,0,0.135c-0.082-0.008-0.183,0.005-0.188-0.08    c0.181-0.142,0.267-0.377,0.51-0.457c0.003,0.073-0.045,0.054,0,0.107c0.194-0.26,0.375-0.655,0.751-0.644    c0.087-0.11,0.233-0.303,0.188-0.456c0.313-0.421,0.765-0.703,0.993-1.208c0.258-0.118,0.43-0.322,0.725-0.403    c0.019-0.083,0.019-0.052,0-0.135c0.085-0.049,0.236-0.032,0.215-0.188c0.178,0.099,0.314-0.101,0.51-0.188    c0.204,0.113,0.417-0.166,0.617-0.161c-0.009,0.17,0.234-0.024,0.295,0.107c0.073-0.025,0.114-0.082,0.188-0.107    c0.117,0.017,0.168,0.099,0.188,0.214c-0.228-0.017-0.227,0.09-0.268,0.215c-0.091,0.008-0.144,0.053-0.188,0.107    c0.026,0.124,0.13-0.078,0.215,0.026c-0.014,0.152-0.035,0.149-0.081,0.242c0.111,0.083,0.228-0.057,0.215-0.188    c0.174-0.001,0.311-0.115,0.429-0.242c0.01,0.045,0.13,0.179,0.027,0.295c-0.019,0.073,0.127-0.02,0.107,0.053    c-0.116,0.117-0.375,0.091-0.403,0.295c0.086,0.022,0.107,0.108,0.161,0.161c-0.036,0.233-0.304,0.232-0.349,0.456    c-0.119-0.074-0.058,0.12-0.215,0.081c0.07,0.143-0.044,0.258-0.161,0.295c0.065,0.128,0.007,0.321-0.054,0.456    c0.259-0.117,0.311-0.44,0.537-0.591c0.045,0.155-0.082,0.27-0.054,0.43c0.149-0.006,0.177-0.206,0.349-0.107    c0.108-0.053,0.096-0.226,0.215-0.268c-0.03,0.033-0.023,0.055,0.027,0.054c0.023,0.086-0.042,0.083-0.054,0.134    c0.028,0.051,0.209,0.006,0.107,0.107c0.867-0.145,1.467-0.638,2.147-0.94c0.058-0.023,0.095-0.066,0.081-0.161    c0.086-0.023,0.095-0.104,0.188-0.053c0.045-0.054-0.002-0.034,0-0.107c0.071,0,0.153,0.01,0.188-0.027    c0.003-0.048-0.033-0.057-0.027-0.107c0.371,0.012,0.66-0.287,0.859-0.536c0.013-0.028-0.146-0.006-0.161,0.026    c0.058-0.144-0.101-0.165-0.242-0.242c-0.057,0.009,0.038,0.084,0.054,0.107c-0.354,0.024-0.169-0.445,0.107-0.483    c-0.118-0.097,0.034-0.167-0.054-0.242c0.024-0.012,0.048-0.023,0.054-0.053c0.114-0.025,0.135,0.043,0.161,0.107    c0.324-0.136,0.289-0.401,0.376-0.698c-0.025-0.065-0.195,0.016-0.161-0.107c0.229-0.015,0.253-0.1,0.483-0.08    c0.012,0.188-0.017,0.253,0,0.43c0.285,0.055,0.496-0.155,0.725-0.242c0.04,0.042,0.111,0.092,0.188,0.161    c0.26-0.112,0.476-0.06,0.778-0.054c0.013,0.103-0.093,0.086-0.054,0.215c-0.075,0.014-0.14,0.039-0.215,0.054    c-0.008-0.043,0.025-0.046,0.027-0.081c-0.208,0.065-0.343,0.205-0.563,0.268c0,0.169,0.057,0.283,0.161,0.349    c-0.188,0.384-0.655,0.49-0.939,0.778c0.023,0.079,0.086-0.017,0.134,0c-0.108,0.089-0.18,0.213-0.268,0.322    c-0.06-0.062-0.105,0.009-0.188,0c-0.003-0.048,0.033-0.056,0.027-0.108c-0.111,0.067-0.247,0.111-0.349,0.188    c0.017,0.071,0.053,0.035,0.107,0.107c-0.083,0.103,0.039,0.179,0.054,0.268c-0.072,0.018-0.166,0.013-0.134,0.135h-0.134    c0.045-0.157,0.002-0.211-0.081-0.295c-0.174,0.15-0.047,0.3-0.081,0.51c-0.039-0.006-0.009-0.08-0.054-0.08    c-0.122,0.033,0.046,0.078-0.027,0.134c-0.117,0.057-0.147-0.06-0.242,0c-0.033,0.087,0.087,0.021,0.054,0.108    c-0.094,0.04-0.183,0.085-0.295,0.107c0.014-0.147-0.226-0.127-0.242-0.027c-0.209-0.091-0.313,0.105-0.564,0.135    c-0.022,0.096,0.061,0.13,0,0.188c-0.286-0.063-0.292,0.156-0.376,0.295c-0.046,0.01-0.051-0.021-0.054-0.054    c-0.052,0.127-0.146,0.211-0.188,0.349c-0.149-0.071-0.337,0.086-0.269,0.241c-0.186,0.064-0.223,0.278-0.403,0.349    c0.054,0.102,0.078-0.041,0.161,0.054c-0.048,0.05-0.099,0.098-0.215,0.08c-0.066,0.032,0.065,0.112-0.054,0.108    c-0.029,0.1,0.101,0.042,0.081,0.134c-0.185-0.086-0.219,0.238-0.269,0.376c0.027,0.071,0.124,0.072,0.161,0.134    c-0.055,0.111,0.007,0.172-0.08,0.242c0.03,0.042,0.087,0.056,0.08,0.134h-0.161c-0.011,0.064,0.049,0.058,0.027,0.134    c0.323,0.218,0.786-0.049,0.832-0.376c0.255,0.012,0.333-0.352,0.671-0.349c0.003-0.048-0.033-0.057-0.027-0.107    c0.056,0.015,0.077,0.066,0.161,0.053c0.027-0.107-0.08-0.081-0.054-0.188c0.087-0.009,0.143,0.072,0.081,0.134    c0.101-0.123,0.391-0.057,0.376-0.295c0.174,0.022,0.176-0.128,0.242-0.215c0.1,0.123,0.216-0.01,0.295,0.054    c0.047-0.007,0.061-0.047,0.054-0.108c0.107,0.084,0.325-0.02,0.402,0.134c0.296-0.135,0.548-0.196,0.805-0.241    c0.191-0.197,0.504-0.176,0.617-0.403c0.079,0.019,0.042,0.154,0.134,0.161c0.679-0.089,1.197-0.025,1.583-0.295    c-0.079,0.011-0.223-0.056-0.268-0.214c0.121-0.04,0.182-0.14,0.241-0.241c0.031,0.023,0.072,0.035,0.134,0.027    c-0.063,0.121-0.159,0.228-0.107,0.295c0.059,0.077,0.201-0.085,0.215,0.054c0.257-0.186,0.218-0.229,0.268-0.51    c0.158,0.019,0.257-0.106,0.295-0.242c0.062,0.023,0.072,0.023,0.134,0c0.027-0.081-0.06-0.047-0.107-0.053    c0.062-0.096,0.159-0.014,0.295-0.054c0.1-0.151,0.139-0.238,0.376-0.215c0.079-0.023-0.062-0.04-0.027-0.107    c0.063-0.035,0.122-0.075,0.241-0.054c-0.063-0.046-0.02-0.252,0.107-0.322c0.008-0.062-0.077-0.03-0.08-0.081    c0.055-0.102,0.211-0.104,0.215-0.187c0.077,0.003,0.047,0.114,0.134,0.107c0.097-0.054,0.04-0.379,0.188-0.295    c0.016-0.07-0.011-0.097-0.081-0.081c0.111-0.201,0.376-0.247,0.456-0.536c0.231-0.052,0.282-0.09,0.483-0.081    c-0.038-0.169-0.11-0.045-0.215-0.053c0.004-0.067,0.005-0.13-0.054-0.135c-0.058-0.004-0.012,0.096-0.027,0.135    c-0.126-0.029-0.264-0.031-0.376,0.027c-0.079-0.073,0.071-0.143,0.08-0.215c0.068-0.06,0.12,0.058,0.215,0.053    c0.185-0.062,0.113-0.215,0.322-0.241c-0.003-0.095-0.052-0.117,0.027-0.161c0.028-0.1-0.091-0.053-0.107-0.107    c-0.023-0.086,0.042-0.084,0.054-0.134c0.151,0.121,0.314,0.075,0.483,0.188c-0.043,0.02,0.006,0.131-0.08,0.108    c0.088,0.183,0.26,0.117,0.51,0.134c-0.048,0.05-0.072,0.124-0.134,0.161c0.602,0.325,1.366,0.136,2.013,0.053    c0.125,0.105,0.321,0.068,0.483,0.081c0.299-0.349,0.822-0.05,0.966-0.51c0.116,0.035,0.105-0.055,0.134-0.107    c0.076,0.047,0.162-0.007,0.188-0.134c0.539-0.112,1.039,0.429,1.261-0.081c-0.096-0.021-0.093-0.14-0.188-0.161    c0.091-0.165,0.019-0.41,0.322-0.456c0.008,0.044-0.025,0.046-0.027,0.081c0.032-0.031,0.095-0.03,0.161-0.027    c0.064,0.126,0.731,0.383,0.805,0.187c0.076-0.022,0.07,0.038,0.134,0.027c0.06-0.011,0.001-0.143,0.054-0.161    c0.077,0.003,0.176-0.015,0.215,0.026c0.06-0.036-0.057-0.12-0.054-0.187c-0.079,0.064-0.319-0.033-0.269,0.161    c-0.259-0.073-0.431,0.017-0.805-0.027c-0.03-0.143,0.116-0.109,0.188-0.081c-0.019-0.105-0.158-0.084-0.188-0.107    c-0.072-0.049,0.079-0.099,0.027-0.215c0.101-0.056,0.153,0.02,0.268,0.027c0.2,0.013,0.456-0.082,0.59-0.054    c-0.012-0.002,0.103,0.081,0.107,0.081c0.193-0.01,0.264-0.24,0.43-0.295c0.133-0.045,0.211,0.099,0.349,0.027    c-0.216-0.164-0.685-0.222-0.886-0.536c0.015-0.089,0.101-0.039,0.161-0.027c-0.011-0.042-0.084-0.023-0.054-0.108    c0.24,0.02,0.272-0.011,0.456-0.107c-0.249-0.093-0.477-0.22-0.778-0.161c-0.133,0.026-0.205,0.125-0.349,0.107    c-0.191-0.023-0.323-0.18-0.536-0.215c0.338-0.075,0.573,0.205,0.832,0.054c-0.687-0.248-1.188-0.433-2.067-0.537    c-0.086,0.023-0.037-0.088-0.107-0.081c-0.337-0.031-0.917,0-1.127-0.242c0.824,0.032,1.596,0.157,2.308,0.242    c0.145,0.084,0.232,0.061,0.429,0.081C41.845,9.94,41.859,9.963,41.858,10c0.498,0.108,0.884,0.164,1.342,0.375    c0.008,0.063,0.093,0.05,0.08,0.135h0.134c0.129,0.312,0.619,0.118,0.886,0.214c0.051,0.087-0.027,0.147,0.08,0.188    c0.005-0.115,0.227-0.103,0.188,0.053c0.048-0.024,0.034-0.109,0.134-0.081v0.108c0.192-0.168,0.265,0.159,0.483,0.134    c-0.048,0.129,0.074,0.086,0.107,0.134c-0.027,0.09-0.203,0.03-0.134,0.215c-0.082-0.019-0.079,0.047-0.161,0.027    c-0.014,0.093-0.014,0.202-0.107,0.215c0.026,0.171,0.149,0.245,0.161,0.43c0.039-0.042,0.137-0.024,0.215-0.027    c0.014,0.14,0.27,0.114,0.161,0.295c-0.086,0.023-0.083-0.042-0.134-0.054c-0.016,0.048,0.079,0.112,0,0.134    c-0.124,0.034-0.043-0.136-0.107-0.16c-0.083,0.009,0.07,0.136-0.027,0.16c-0.096-0.056-0.119-0.185-0.134-0.322    c-0.09-0.003-0.275-0.085-0.456-0.08c-0.007,0.043,0.025,0.046,0.027,0.08c-0.002,0.046,0.163-0.055,0.161,0.053    c0.025,0.097-0.106,0.038-0.161,0.054c0.046,0.061,0.191,0.024,0.161,0.161c-0.131,0.033-0.136-0.06-0.215-0.08    c-0.078,0.045,0.092,0.067,0.054,0.161c-0.112,0.013-0.193-0.146-0.134-0.215c-0.018-0.08-0.18-0.018-0.188-0.107    c0.041-0.066,0.06-0.155,0.108-0.215c-0.068-0.161-0.462,0.074-0.456-0.107c-0.072,0.103-0.369,0.014-0.268,0.215    c-0.107,0.017-0.108-0.072-0.215-0.054c0.157,0.174,0.468,0.194,0.617,0.375c0.004,0.138-0.133,0.055-0.215,0.054    c0.18,0.071,0.277,0.223,0.456,0.295c-0.045,0.251,0.247,0.349,0.456,0.429c0.002,0.039,0.004,0.076-0.027,0.081    c0.036,0.042,0.114-0.117,0.215-0.027c-0.08,0.115,0.055,0.192-0.053,0.322c0.166,0.234,0.549,0.253,0.912,0.188    c-0.054,0.143,0.115,0.064,0.081,0.188c-0.106,0.035-0.055-0.088-0.161-0.053c-0.079,0.023,0.081,0.021,0.027,0.107    c-0.122-0.012-0.22-0.048-0.349-0.053c0.033-0.045-0.013,0.217-0.027,0.188c0.103,0.21,0.456-0.06,0.51,0.242    c-0.113-0.043-0.099,0.07-0.161,0.08c-0.158,0.027-0.212-0.145-0.403-0.134c-0.035,0.058,0.105,0.143,0.027,0.268    c-0.285-0.047-0.406-0.51-0.778-0.295c0.108,0.152,0.281,0.237,0.429,0.349c0.063,0.358,0.527,0.314,0.725,0.537    c0.021-0.069,0.077-0.102,0.188-0.081c0.011,0.056-0.018,0.071-0.027,0.108c0.075-0.05,0.114-0.137,0.161-0.215    c0.121-0.014-0.021,0.236,0.161,0.161c-0.012,0.146,0.034,0.234,0.134,0.268c0.037,0.158-0.178,0.116-0.215,0.054    c-0.383,0.071-0.711-0.102-0.993,0.08c0.114,0.101,0.304,0.126,0.43,0.215c0.071,0.254-0.317,0.262-0.43,0.161    c-0.066,0.148-0.303,0.127-0.295,0.349c-0.084,0.013-0.105-0.038-0.161-0.053c-0.053,0.018-0.061,0.082-0.107,0.107    c-0.316-0.094-0.388,0.404-0.268,0.671c-0.17,0.185-0.489,0.07-0.59-0.107c0.039-0.068,0.111-0.104,0.107-0.215    c-0.152-0.125-0.347-0.071-0.51-0.081c0.095,0.129,0.266,0.181,0.295,0.375c0.094,0.103,0.281,0.113,0.322,0.269    c-0.061,0.093-0.206,0.176-0.349,0.107c-0.089,0.027-0.014,0.219-0.107,0.241c0.006,0.039,0.08,0.01,0.081,0.054    c0.024,0.094-0.088,0.046-0.107,0.027c-0.016,0.212,0.273,0.12,0.215,0.376c-0.069,0.092-0.281,0.042-0.429,0.054    c0.111,0.014,0.149,0.102,0.215,0.161c0.01,0.171-0.151,0.17-0.322,0.161c-0.205-0.171-0.605-0.146-0.617-0.51    c0.011-0.064-0.122,0.015-0.081-0.08c-0.039,0.032-0.041,0.102-0.081,0.134c-0.1,0.019-0.115-0.046-0.215-0.027    c-0.016-0.085,0.05-0.082,0-0.133c-0.107-0.018-0.108,0.071-0.215,0.053c-0.019-0.082,0.046-0.079,0.027-0.161    c-0.071-0.008-0.088,0.037-0.08,0.108c-0.107,0.026-0.081-0.081-0.188-0.054c-0.022,0.029,0.018,0.24-0.081,0.269    c-0.112-0.032-0.098-0.188-0.107-0.322c0.109,0.026,0.155,0.044,0.134-0.107c0.09-0.009,0.119-0.077,0.242-0.053    c-0.027-0.069-0.047-0.18,0.027-0.214c0.121,0.153,0.392-0.005,0.51,0.16c0.34-0.007,0.846,0.275,0.939-0.215    c-0.123-0.283-0.508-0.296-0.912-0.402c-0.161-0.042-0.544-0.253-0.778-0.081c-0.217-0.203-0.579,0.058-0.752-0.161    c-0.004-0.093,0.065-0.114,0.081-0.188c-0.027-0.045-0.124-0.019-0.134-0.08c-0.111,0.041-0.223,0.039-0.322-0.054    c-0.123,0.018-0.302,0.184-0.403,0.054c-0.032,0.03-0.049,0.076-0.134,0.054v0.134c-0.224-0.025-0.378,0.204-0.644,0.134    c-0.111,0.194-0.418,0.191-0.43,0.483c-0.215,0.013-0.27,0.149-0.429,0.268c0.122,0.032,0.161-0.1,0.242-0.027    c-0.069,0.246-0.211,0.597-0.43,0.671c0.021,0.164-0.117,0.17-0.188,0.242c-0.015,0.055,0.051,0.064,0.054,0.027    c0.134,0.36-0.373,0.443-0.43,0.778c-0.14,0.039-0.257,0.1-0.295,0.242c-0.087,0.023-0.038-0.088-0.081-0.107    c-0.103,0.04-0.216,0.211-0.242,0.241c-0.065,0.051-0.214,0.018-0.295,0.054c0.012,0.051,0.058,0.067,0.054,0.134h-0.107    c-0.15,0.468-0.044,0.849,0.054,1.288c0.176,0.003,0.246,0.112,0.376,0.161c0.293-0.056,0.43-0.411,0.698-0.403    c0.05-0.003,0.017-0.091,0.054-0.107c0.145-0.037,0.142,0.073,0.241,0.08c0.04,0.461,0.272,0.73,0.483,1.02    c-0.009,0.098-0.106,0.108-0.081,0.241c-0.208,0.054-0.467,0.124-0.268,0.403c0.015,0.06-0.051,0.038-0.054,0.081    c0.187,0.216,0.335-0.118,0.349-0.323c0.16,0.057,0.307,0.049,0.456,0.027v-0.188c0.087-0.021,0.141-0.074,0.161-0.161    c0.218,0.048,0.265-0.075,0.429-0.08c-0.027-0.133,0.085-0.085,0.027-0.188c-0.023-0.064-0.066,0.073-0.161,0.027    c-0.081-0.273,0.014-0.448-0.027-0.751c0.288-0.017,0.332-0.295,0.403-0.456c-0.023-0.079-0.068,0.035-0.134,0    c0.014-0.104-0.068-0.111-0.081-0.188c-0.093-0.013-0.015,0.146-0.08,0.161c-0.084-0.005-0.073-0.106-0.188-0.081    c-0.013-0.148,0.002-0.266,0.081-0.322c0.013-0.084-0.072-0.071-0.081-0.134c0.106-0.27,0.13-0.621,0.268-0.859    c0.187,0.153,0.27-0.146,0.349-0.268c0.024-0.104-0.065-0.095-0.08-0.161c0.008-0.081,0.083-0.096,0.054-0.215    c0.134-0.009,0.156-0.13,0.188-0.242c0.305,0.062,0.725,0.008,0.671,0.429c-0.269,0.107-0.226,0.526-0.537,0.591    c-0.015,0.039,0.031,0.139-0.027,0.134c0.071,0.019,0.158,0.103,0.08,0.188c0.129,0.04,0.153,0.187,0.322,0.187    c0.042-0.104-0.07-0.056-0.081-0.107c0.004-0.05,0.018-0.09,0.054-0.107c0.106-0.035,0.07,0.073,0.107,0.107    c0.096-0.07,0.102-0.083,0.081-0.242c0.093,0.022,0.103-0.04,0.188-0.027c-0.027,0.09,0.037,0.089,0.107,0.081    c0.095-0.053,0.008-0.122,0.027-0.241c0.082-0.02,0.098,0.027,0.161,0.027c-0.022,0.112-0.027,0.241-0.134,0.268    c0.032,0.039,0.117,0.026,0.08,0.134c-0.084,0.031-0.065-0.043-0.107-0.053c0.004,0.031-0.006,0.047-0.027,0.053    c0.014,0.076,0.129,0.05,0.188,0.081c-0.013,0.201-0.208,0.221-0.376,0.268c0.026-0.219-0.21-0.228-0.322-0.161    c-0.069,0.006,0.037,0.046,0,0.107c-0.086,0.023-0.083-0.043-0.134-0.053c0.045,0.08,0.123,0.127,0.188,0.187    c0.028,0.1-0.067,0.077-0.054,0.161c0.109,0.123,0.296,0.169,0.51,0.188c0.312-0.231,0.864-0.48,1.261-0.241    c-0.024,0.321-0.396,0.441-0.671,0.349c-0.359,0.035-0.564,0.223-0.805,0.375c0.091,0.069,0.032,0.157-0.027,0.215    c0.162,0.025,0.204-0.175,0.376-0.161c0.226,0.018,0.311,0.369,0.268,0.591c-0.046-0.01-0.05,0.021-0.054,0.054    c-0.258,0.016-0.259-0.224-0.483-0.242c-0.167,0.081-0.126,0.21-0.241,0.349c0.153,0.161-0.042,0.389,0.161,0.51    c-0.007,0.083-0.027,0.152-0.054,0.215c-0.122,0.03-0.187-0.004-0.268,0.027c-0.023,0.086,0.07,0.055,0.081,0.107    c-0.012,0.096-0.097,0.118-0.134,0.188c-0.079,0.002-0.237,0.052-0.322-0.027v-0.188c-0.263-0.049-0.23,0.199-0.483,0.161    c-0.047,0.248-0.477,0.113-0.483,0.402c-0.232,0.017-0.216-0.213-0.403-0.241c-0.015-0.06,0.051-0.039,0.054-0.081    c-0.254-0.148-0.453,0.203-0.725,0.215v-0.134c-0.121,0.065-0.157-0.085-0.295-0.081c-0.009-0.107,0.048-0.149,0.027-0.269    c0.082-0.019,0.079,0.047,0.161,0.027c0.047-0.025,0.059-0.084,0.054-0.161c-0.056-0.025-0.128-0.007-0.215-0.054    c-0.08-0.161,0.067-0.135,0.054-0.295c0.054-0.009,0.084,0.005,0.08,0.053c0.036-0.017,0.05-0.057,0.054-0.108    c-0.154-0.054-0.196-0.23-0.08-0.349c0.003-0.048-0.033-0.056-0.027-0.107c-0.111-0.031-0.105,0.057-0.188,0.054    c-0.027,0.106,0.08,0.08,0.054,0.187c-0.096,0.016-0.151-0.009-0.161-0.081c-0.059,0.022-0.035,0.127-0.107,0.135    c-0.057,0.013-0.051-0.038-0.054-0.08c-0.1-0.002-0.065,0.131-0.161,0.134c0.064,0.169,0.008,0.431,0.188,0.537    c-0.023,0.272,0.054,0.348,0.054,0.644c-0.071,0.018-0.166,0.013-0.134,0.134c-0.134,0.01-0.148-0.101-0.295-0.08    c-0.095,0.175-0.627-0.003-0.644,0.322c-0.057-0.058-0.15-0.014-0.188,0.027c0.008,0.485-0.519,0.66-0.966,0.778    c0.136,0.499-0.538,0.314-0.51,0.617c-0.14-0.006-0.268,0-0.376,0.027c-0.04-0.032-0.042-0.102-0.08-0.135    c-0.209,0.011,0.007,0.305-0.134,0.403c-0.189-0.06-0.387,0.051-0.483-0.108c-0.178,0.078-0.342,0.009-0.51,0.08    c0.068,0.299,0.343,0.391,0.698,0.403c0.069,0.281,0.039,0.527,0.322,0.617c-0.062,0.207-0.031,0.384-0.081,0.671    c-0.103,0.232-0.061,0.735-0.536,0.671v-0.107c-0.382-0.122-1.124,0.003-1.556-0.188c-0.071-0.009-0.088,0.036-0.081,0.107    c-0.187-0.005-0.416,0.012-0.483,0.188c-0.048,0.125,0.121,0.407-0.107,0.456c-0.026,0.106,0.15,0.011,0.134,0.107    c0.026,0.097-0.106,0.038-0.161,0.054c-0.019,0.073,0.126-0.019,0.107,0.054c0.008,0.071-0.037,0.088-0.107,0.08    c0.116,0.508-0.682,0.65-0.429,1.128c0.033,0.039,0.092,0.05,0.161,0.054c-0.022,0.193-0.169,0.26-0.161,0.483    c0.008,0.036,0.067,0.022,0.107,0.027c0.008,0.07-0.01,0.115-0.08,0.108c0.081,0.044,0.23,0.021,0.268,0.107    c0.147-0.076,0.339-0.107,0.51-0.027c0.051,0.243,0.057,0.402,0.188,0.59h0.134c0.233-0.459,1.067-0.131,1.422-0.322v-0.134    c0.097-0.126,0.315-0.131,0.483-0.188c0.076-0.21,0.224-0.348,0.295-0.564c-0.024-0.047-0.094-0.049-0.134-0.08    c0.064-0.161-0.092-0.286,0-0.456c0.156,0.072,0.191-0.033,0.322-0.053v-0.135c0.104-0.048,0.251-0.053,0.214-0.242    c0.281-0.023,0.525-0.083,0.59-0.322c0.2,0.112,0.091-0.155,0.295-0.108c0.007-0.159-0.041-0.263-0.054-0.403    c0.089-0.063,0.157-0.147,0.242-0.214c0.552,0.081,0.841,0.099,1.235-0.081c-0.023-0.031-0.036-0.072-0.027-0.134    c0.098-0.008,0.175,0.005,0.242,0.026c0.189-0.248,0.721-0.272,0.886,0c0.007,0.495,0.369,0.634,0.671,0.833    c0.044,0.34,0.523,0.246,0.697,0.456c0.023,0.086-0.042,0.083-0.054,0.134c0.154-0.079,0.222,0.061,0.349,0    c0.111,0.11,0.141,0.329,0.349,0.269c0.03,0.263,0.248,0.266,0.161,0.59c-0.132-0.008-0.106,0.144-0.161,0.215    c-0.378,0.108-0.743,0.183-1.047,0.107c-0.084,0.051-0.097,0.171-0.134,0.269c0.228,0.019,0.523,0.15,0.725,0.268    c0.112,0.066,0.092,0.149,0.215,0.134c0.371-0.042,0.027-0.445,0.242-0.644c0.284,0.171,0.405-0.197,0.456-0.43    c0.093,0.021,0.113-0.03,0.161-0.054c0.006-0.171-0.155-0.3-0.295-0.402c0.005-0.129,0.093-0.176,0.107-0.295    c0.204-0.017,0.21,0.166,0.376,0.188c-0.022,0.093,0.05,0.113,0,0.161c0.447-0.127-0.027-0.39-0.188-0.537    c-0.257-0.011-0.325-0.212-0.59-0.214c-0.022-0.076,0.038-0.07,0.027-0.134c-0.323-0.08-0.74-0.065-0.751-0.457    c-0.005-0.031-0.049-0.022-0.081-0.026c0.011-0.145-0.086-0.182-0.107-0.296c-0.154-0.086-0.387-0.096-0.456-0.241    c-0.041-0.085-0.055-0.41-0.027-0.51c0.009-0.032,0.122,0.026,0.027-0.08c0.157,0.023,0.168-0.101,0.295-0.108    c0.045,0.116,0.091,0.231,0.134,0.349c0.132,0.006,0.203-0.047,0.349-0.027c0.073,0.097,0.105,0.235,0.268,0.241    c-0.078,0.178,0.152,0.156,0.134,0.349c0.177,0.007,0.159,0.056,0.349,0.026v0.108c0.304-0.06,0.366,0.348,0.778,0.269    c0.006,0.128,0.175,0.094,0.241,0.161c0.002,0.205,0.12,0.489,0.027,0.698c0.041,0.12,0.106,0.216,0.268,0.214    c-0.03,0.307,0.267,0.288,0.403,0.429c0.106-0.036,0.103-0.182,0.242-0.187c0.066,0.041,0.026,0.189,0.161,0.161    c0.022,0.093-0.05,0.114,0,0.161c0.141-0.173,0.391,0.16,0.537,0.242c-0.283,0.263-0.589-0.258-0.725,0.134    c0.129,0.122,0.274,0.227,0.322,0.429c0.16-0.071,0.321,0.066,0.429,0.134c0.112-0.22-0.289-0.158-0.214-0.429h0.161    c-0.074-0.122,0.049-0.15,0.081-0.241c0.097,0.029,0.204,0.158,0.322,0.08c0.008-0.105-0.07-0.213,0-0.296    c-0.104-0.102-0.375-0.037-0.483-0.134c0.117-0.303-0.196-0.317-0.188-0.591c0.253-0.042,0.307-0.284,0.456-0.429    c0.207-0.007,0.383-0.047,0.59-0.054c0.005,0.147,0.177,0.127,0.241,0.214c-0.024,0.065-0.069,0.11-0.134,0.135    c0.003,0.096,0.012,0.184,0.081,0.214c0.086,0.024,0.056-0.07,0.107-0.08c0.082-0.011,0.045,0.098,0.107,0.107    c-0.103,0.147,0.055,0.166,0.053,0.349c-0.049,0.059-0.13,0.084-0.215,0.107c0.011,0.052,0.123,0.003,0.081,0.107    c0.088-0.183,0.116,0.045,0.268-0.026c0.062,0.117,0.077,0.281,0.134,0.402c0.051-0.011,0.049-0.076,0.134-0.054    c0.004,0.066,0.004,0.13-0.027,0.161c0.21,0.09,0.749-0.136,0.725,0.295c0.122-0.092,0.136,0.003,0.295,0    c0.048-0.086,0.079-0.189,0.107-0.295c0.24-0.085,0.593-0.063,0.751,0.134c0.311,0.07,0.568-0.116,0.671-0.402    c0.135,0,0.248,0.021,0.349,0.054c0.071,0,0.069-0.075,0.107-0.108c0.143,0.129,0.084,0.304,0.107,0.564    c0.202,0.114,0.099,0.508,0.188,0.725c-0.011,0.06-0.057,0.086-0.081,0.134c0.004,0.104,0.091,0.124,0.081,0.242    c-0.024-0.021-0.06-0.029-0.107-0.027c0.046,0.079,0.068,0.182,0.054,0.322c-0.024,0.021-0.06,0.029-0.107,0.027    c-0.011,0.064,0.122-0.015,0.08,0.08c-0.176,0.137-0.024,0.602-0.295,0.644c0.026-0.078-0.215-0.016-0.188,0.081    c-0.304,0.05-0.4-0.071-0.698-0.081c-0.059,0.004-0.057,0.068-0.054,0.134c-0.306-0.079-0.58,0.098-0.698,0.295    c-0.655-0.023-1.009-0.335-1.637-0.134c0.02-0.082-0.046-0.079-0.027-0.161c-0.253-0.012-0.573-0.031-0.832-0.107    c-0.031-0.04-0.031-0.068,0-0.108c-0.225-0.017-0.377-0.107-0.617-0.108c-0.093,0.105-0.279,0.115-0.429,0.161    c-0.297,0.166-0.239,0.627-0.081,0.832c-0.034,0.163-0.158,0.235-0.268,0.322c-0.237,0.026-0.318-0.05-0.483-0.161    c-0.025-0.017-0.082,0.016-0.107,0c-0.014-0.009-0.009-0.073-0.027-0.081c-0.136-0.053-0.415-0.032-0.59-0.08    c-0.102-0.028-0.141-0.115-0.295-0.054c-0.008-0.043,0.026-0.047,0.027-0.081c-0.187-0.054-0.215-0.268-0.322-0.403    c-0.38-0.051-0.654-0.302-1.073-0.161c-0.17-0.15-0.543-0.145-0.591-0.483c-0.068,0.063-0.13-0.034-0.161,0.053    c-0.087-0.02-0.17-0.044-0.161-0.161c0.203-0.196,0.354-0.424,0.322-0.724c-0.039-0.006-0.129-0.049-0.188-0.107    c0.015-0.104-0.048-0.131-0.027-0.242c0.122-0.057,0.219-0.138,0.242-0.295c-0.073,0.021-0.335,0.023-0.349-0.161    c-0.364-0.07-0.527,0.224-0.832,0.295c-0.182-0.083-0.341-0.251-0.617-0.161c-0.073,0.025,0.071,0.05,0.027,0.134    c-0.138-0.076-0.112,0.151-0.295,0.108c-0.02-0.073,0.053-0.054,0.054-0.108c-0.007-0.029-0.053-0.018-0.054-0.053    c-0.084-0.031-0.065,0.042-0.107,0.053c-0.415-0.138-0.816-0.071-1.181,0.054c-0.314-0.125-0.514,0.125-0.752,0.08    c-0.064,0.087-0.232,0.072-0.241,0.215c-0.533-0.018-0.567,0.412-1.073,0.295c-0.046-0.025-0.054-0.089-0.107-0.107    c-0.395,0.03-0.442-0.048-0.778,0.053c-0.051-0.065-0.054-0.177-0.161-0.188c-0.013-0.11,0.131-0.038,0.134,0    c0.025-0.175-0.196-0.223-0.295-0.188c-0.012,0.075,0.146-0.021,0.134,0.053c0.02,0.083-0.093,0.033-0.054,0.134    c-0.086,0.023-0.056-0.069-0.107-0.08c-0.119,0.037-0.039,0.276-0.134,0.268c-0.033,0.087,0.087,0.021,0.054,0.108    c-0.094,0.178-0.309,0.08-0.376,0.295c0.011,0.052,0.104,0.021,0.081,0.107c-0.062,0.065-0.072-0.042-0.134-0.053    c-0.064-0.011,0.015,0.122-0.081,0.08c0.007,0.029,0.053,0.018,0.054,0.053c-0.029,0.069-0.086,0.111-0.188,0.108    c-0.031-0.085,0.042-0.065,0.054-0.108c-0.37-0.066-0.427,0.263-0.805,0.296c0.038,0.111-0.077,0.207,0,0.268    c-0.228,0.158-0.24,0.367-0.349,0.645c-0.015,0.059,0.051,0.038,0.054,0.08c-0.081,0.066,0.021,0.109,0,0.188    c-0.039,0.146-0.254,0.234-0.295,0.402c-0.011,0.065,0.122-0.015,0.08,0.08h-0.242c-0.327,0.306-0.867,0.325-1.261,0.51    c0.005,0.175-0.085,0.256-0.134,0.376c-0.29,0.017-0.388,0.361-0.564,0.403c-0.018,0.25-0.159,0.378-0.188,0.617    c-0.43,0.186-0.594,0.509-0.778,0.967c-0.382,0.094-0.498,0.696-0.107,0.805c0.014,0.162,0.068,0.371-0.107,0.403    c0.017,0.077,0.102,0.138,0,0.188c0.026,0.055,0.033,0.127,0.107,0.134c0.144,0.8-0.3,1.031-0.349,1.61    c-0.195,0.029-0.197,0.251-0.376,0.296c0.09,0.097,0.108,0.268,0.161,0.402c0.043-0.002,0.102,0.013,0.107-0.026    c0.061,0.02,0.01,0.151,0.027,0.214c-0.12,0.095-0.205,0.224-0.242,0.402c0.091,0.132,0.212,0.236,0.242,0.43    c0.123-0.008,0.13-0.029,0.241,0c-0.002,0.042,0.013,0.102-0.027,0.107c0.193,0.102,0.124,0.466,0.402,0.483    c-0.036,0.249,0.277,0.337,0.295,0.617c0.004,0.059,0.068,0.058,0.134,0.054c-0.006,0.265,0.239,0.279,0.268,0.509    c0.031-0.022,0.072-0.035,0.134-0.027c-0.015,0.113,0.105,0.091,0.107,0.188c-0.021,0.095-0.141,0.092-0.161,0.188    c0.082,0.061,0.239,0.047,0.215,0.215c-0.096,0.007-0.129-0.05-0.215-0.054c0.13,0.166,0.321,0.27,0.564,0.322    c-0.013,0.192,0.073,0.285,0.242,0.295c0.099,0.232,0.413,0.249,0.456,0.537c0.241,0.233,0.628,0.32,0.805,0.617    c0.25,0.072,0.469,0.016,0.752-0.081c0.107-0.036,0.155-0.119,0.268-0.134c0.253-0.033,0.557,0.124,0.698-0.027    c0.128,0.026,0.271,0.112,0.403,0.054c0.049,0.031,0.058,0.103,0.107,0.134c0.039-0.006,0.009-0.08,0.054-0.081    c0.22,0.108,0.486,0.302,0.751,0.242c0.096-0.021,0.178-0.152,0.268-0.188c0.054-0.021,0.073,0.031,0.107,0.027    c0.095-0.01,0.237-0.145,0.402-0.188c0.143-0.036,0.281-0.013,0.403-0.053c0.125-0.042,0.207-0.1,0.349-0.134    c0.197-0.047,0.295-0.111,0.483-0.188c0.088-0.007,0.077,0.083,0.134,0.108c0.166-0.001,0.219-0.053,0.402-0.081    c0.226,0.105,0.446,0.216,0.617,0.375c-0.047,0.225,0.261,0.325,0.134,0.457c0.006,0.039,0.08,0.009,0.081,0.054    c0.015,0.059-0.051,0.038-0.054,0.08c0.265,0.201,0.701,0.029,1.047,0.08c0.031-0.004,0.023-0.049,0.027-0.08    c0.224,0.076,0.353-0.056,0.564,0.053c0.048-0.033,0.005-0.155,0.134-0.107c-0.016,0.15-0.078,0.106-0.081,0.241h0.295    c0.206,0.226,0.266,0.559,0.08,0.859c-0.011,0.065,0.122-0.015,0.081,0.081c0.004,0.118-0.066-0.002-0.134,0.027    c-0.04,0.072,0.053,0.195-0.08,0.215c0.024,0.039,0.021,0.104,0.107,0.081c-0.009,0.434-0.174,0.653-0.429,0.885    c0.113,0.33,0.388,0.622,0.59,0.939c0.093-0.021,0.103,0.04,0.188,0.027c0.046,0.124,0.095,0.245,0.295,0.215    c0.055,0.171,0.182,0.345,0.349,0.322c0.036,0.116,0.002,0.302,0.161,0.296c-0.062,0.173,0.057,0.152,0.107,0.268    c0.013,0.057-0.038,0.051-0.081,0.053c-0.034,0.258,0.275,0.173,0.242,0.43c0.05,0.067,0.139-0.056,0.161,0.054    c0.026,0.098-0.131,0.012-0.08,0.135c0.105,0.105,0.064,0.255,0.268,0.295c-0.032,0.201-0.122,0.343-0.241,0.456    c0.125,0.34,0.315,0.615,0.456,0.939c-0.029,0.415-0.641,0.441-0.671,0.939c-0.053,0-0.034,0.073-0.107,0.053    c0.038,0.334-0.163,0.427-0.188,0.698c-0.056-0.011-0.071,0.019-0.107,0.027c0.162,0.205-0.174,0.693,0.107,0.832    c-0.05,0.165,0.143,0.187,0.215,0.269c0.128,0.146,0.139,0.386,0.322,0.456c-0.027,0.172,0.164,0.444,0.349,0.403    c-0.104,0.164,0.154,0.227,0.188,0.376c0.042,0.183-0.065,0.383-0.054,0.537c0.214,0.187,0.009,0.531,0.242,0.724    c-0.049,0.19,0.105,0.195,0.053,0.322c0.148,0.081,0.102,0.317,0.43,0.268c0.163,0.401,0.443,0.684,0.617,1.073    c0,0.116-0.127,0.106-0.161,0.187c0.075,0.01,0.172,0.177,0.081,0.295c0.156-0.115,0.261,0.108,0.429,0.135    c0.262,0.042,0.436-0.178,0.724-0.161c-0.011-0.042-0.084-0.023-0.053-0.108c0.082,0.019,0.079-0.046,0.161-0.027    c0.021,0.024,0.029,0.06,0.027,0.107c0.2-0.312,0.686-0.084,0.966-0.296c0.089,0.154,0.2-0.132,0.268,0.027    c0.075-0.05,0.216-0.034,0.242-0.134c0.057-0.012,0.051,0.039,0.054,0.081c0.036-0.008,0.022-0.067,0.027-0.107    c0.139-0.016,0.376-0.082,0.403,0.08c-0.056-0.237,0.409-0.156,0.483-0.349c0.082-0.019,0.079,0.046,0.161,0.027    c0.069-0.007-0.037-0.047,0-0.108c0.111,0.047,0.147-0.118,0.215-0.027c0.325-0.328,0.871-0.435,1.073-0.886    c0.044-0.007,0.046,0.026,0.081,0.027c0.407-0.424,1.096-0.681,1.047-1.476c0.205-0.17,0.669-0.306,0.966-0.483    c0.138-0.083,0.375-0.198,0.322-0.51c0.106-0.055,0.062-0.26,0.134-0.349c-0.08-0.152-0.137-0.368-0.161-0.698    c0.181-0.15,0.419-0.243,0.456-0.537h0.161c0.327-0.146,0.401-0.547,0.778-0.644c0.031-0.004,0.023-0.049,0.027-0.08h0.107    c0.431-0.311,0.956-0.528,1.154-1.073c0.274-0.13,0.067-0.476,0.08-0.752c0.013-0.25,0.177-0.494,0.081-0.725    c0.199-0.11,0.047-0.398-0.027-0.537h-0.134c-0.051-0.163-0.078-0.351-0.161-0.483c0.09-0.202-0.018-0.552,0.161-0.697    c-0.085-0.084-0.157-0.204-0.295-0.161c0.05-0.051,0.003-0.067,0-0.134c0.071,0,0.158,0.015,0.161-0.054    c-0.046-0.095-0.044,0.078-0.134,0.027c0.022-0.345,0.133-0.6,0.322-0.779c0.034-0.252,0.138-0.434,0.268-0.59    c-0.053-0.051-0.013-0.127,0-0.188c0.747-0.595,1.047-1.637,1.744-2.281c-0.022-0.076,0.038-0.069,0.027-0.134    c0.901-0.71,1.445-1.775,1.691-3.14c0.217-0.204,0.139-0.702,0.349-0.912c-0.027-0.394,0.093-0.865,0.027-1.208    c-0.013-0.084,0.072-0.07,0.081-0.134c-0.147-0.143-0.498-0.064-0.456,0.215c-0.139,0.102-0.396,0.086-0.429,0.295    c-0.077-0.003-0.176,0.014-0.215-0.027c-0.083,0.051-0.114,0.073-0.081,0.188c-0.168,0.034-0.443,0.013-0.456,0.268    c-0.233,0.039-0.276,0.17-0.483,0.188c-0.074,0.35-0.703,0.346-0.724-0.054c-0.093,0.048-0.186,0.008-0.242-0.054    c-0.016-0.105,0.111-0.068,0.134-0.134c-0.064-0.106-0.085-0.255-0.107-0.403c0.164,0.013,0.199,0.114,0.376,0.054    c0.075-0.015,0.075-0.104,0.107-0.161c0.257-0.021,0.296-0.26,0.402-0.43c0.266-0.058,0.542-0.12,0.617-0.429    c0.062-0.009,0.126-0.017,0.107-0.107c0.11,0.021,0.138-0.041,0.242-0.027c0.134-0.195,0.244-0.508,0.537-0.617    c0.045-0.054,0.097-0.099,0.107-0.188c0.212-0.002,0.268-0.162,0.429-0.214c0.041-0.2,0.163-0.531,0.134-0.751    c0.285-0.073,0.318-0.398,0.671-0.403c0.117-0.08,0.068-0.219,0.054-0.376c0.148,0.023,0.183-0.067,0.322-0.053    c0.027-0.081-0.06-0.048-0.107-0.054c0.01-0.169,0.091-0.267,0.188-0.349c-0.028-0.15-0.08-0.272,0-0.402    c0.15,0.07,0.094-0.087,0.215-0.107c-0.124-0.203-0.097-0.393-0.107-0.698c0.109-0.034,0.223-0.063,0.242-0.188    c-0.095-0.012-0.088-0.127-0.08-0.241c0.056,0.011,0.071-0.018,0.107-0.026c-0.041-0.307,0.041-0.57-0.081-0.806    c-0.222-0.12-0.382-0.247-0.59-0.322c-0.13,0.088-0.276,0.064-0.429,0.081c-0.15-0.28-0.405-0.454-0.456-0.832    c-0.224,0.124-0.163,0.535-0.376,0.671c0.02,0.146-0.043,0.208-0.027,0.349c-0.135-0.002-0.18,0.088-0.295,0.107    c0,0.053,0.073,0.034,0.053,0.107c-0.114-0.015-0.177,0.019-0.268,0.027c-0.07,0.034-0.012,0.128-0.054,0.133    c-0.072,0.039-0.17-0.087-0.295-0.08c0.059-0.146-0.009-0.233-0.054-0.403c0.084-0.005,0.091-0.088,0.188-0.08    c-0.008-0.082-0.083-0.096-0.054-0.216c-0.08,0.028-0.067,0.149-0.215,0.108c-0.011-0.056,0.018-0.071,0.027-0.108    c-0.073-0.007-0.126-0.034-0.161-0.08c-0.126-0.014-0.081,0.062-0.215,0.08c-0.158-0.065-0.188-0.258-0.429-0.241    c-0.055-0.072-0.025-0.102-0.054-0.161c-0.122-0.004-0.105-0.023-0.215,0c-0.008-0.043,0.025-0.046,0.027-0.081    c-0.318-0.04-0.282-0.433-0.564-0.509c-0.035-0.09,0.018-0.269-0.081-0.295c0.056-0.245,0.246-0.378,0.456-0.349    c0.202,0.028,0.276,0.35,0.483,0.322c0,0.063,0.046,0.079,0.027,0.161c0.24,0.12,0.251,0.375,0.644,0.295    c0.015,0.066,0.104,0.058,0.08,0.161c0.136-0.001,0.256,0.013,0.268,0.134c0.254-0.02,0.485,0.112,0.617-0.161    c0.186,0.135,0.212-0.099,0.349-0.161c0.025-0.105-0.093-0.068-0.054-0.188c0.045-0.045,0.158-0.021,0.242-0.027    c-0.026,0.274,0.123,0.376,0.242,0.564c0.182-0.096,0.49-0.065,0.698-0.135c-0.006-0.031,0.075-0.152,0.161-0.08    c0.365-0.137,0.735-0.263,1.02-0.591c0.082,0.035,0.137-0.091,0.161-0.027c0.075-0.015,0.075-0.103,0.107-0.161    c0.13-0.019,0.108,0.015,0.134-0.108c0.177,0.056,0.251,0.214,0.456,0.242c0.102,0.368,0.575,0.305,0.859,0.537    c-0.091,0.088-0.189,0.169-0.349,0.188c0.352,0.051,0.552,0.253,0.832,0.376c0.139-0.068,0.206-0.207,0.215-0.403h0.161    c0.107,0.206,0.161,0.466,0.215,0.725h0.134c-0.001,0.071,0.025,0.168-0.081,0.134c0.021,0.024,0.029,0.06,0.027,0.108    c0.048,0.05,0.068-0.022,0.161,0c0.046,0.089,0.027,0.183-0.054,0.215c0.169,0.304,0.389,0.558,0.456,0.965    c0.048,0.05,0.068-0.022,0.161,0c0.059,0.138,0.165,0.229,0.188,0.403H61.69c0.292,0.219,0.228,0.792,0.564,0.967    c-0.029,0.252,0.093,0.354,0.242,0.429c0.007,0.07,0.009,0.134-0.081,0.107c0.06,0.03,0.019,0.16,0.134,0.135    c-0.02,0.153,0.156,0.412,0.054,0.643c0.094-0.131,0.143,0.013,0.215-0.107c0.075,0.005,0.073,0.088,0.134,0.107    c0.077-0.291,0.028-0.736,0.081-1.073c0.038-0.24,0.172-0.533-0.081-0.778c0.024-0.38-0.007-0.419-0.027-0.779    c-0.506-0.958-0.014-2.428-0.215-3.649c-0.006-0.039-0.08-0.009-0.08-0.053c0.132-0.038,0.198-0.593,0-0.618    c-0.11-0.356-0.142-0.61,0.08-0.885c0.021-0.173-0.04-0.264-0.027-0.43c0.283-0.023,0.273,0.246,0.349,0.43    c0.087-0.016,0.125,0.018,0.188,0.027c0.207,0.495,0.468,0.972,0.563,1.503c0.045-0.068-0.014-0.245,0.107-0.295    c0.17,0.223,0.211,0.576,0.322,0.858c0.17-0.102-0.07-0.255,0-0.348c0.029,0.07,0.071,0.126,0.108,0.188    c-0.202,0.394,0.124,0.773,0.134,1.315c0.046,0.01,0.051-0.021,0.054-0.054c-0.024,0.169-0.002,0.631,0.134,0.805    c-0.095-0.015,0.011,0.169-0.027,0.268c0.136-0.105-0.012,0.027,0.081,0.135c0.004,0.059,0.068-0.035,0.134,0    c-0.201,0.204,0.009,0.516,0.027,0.751h-0.08c0.005,0.552-0.127,0.929,0.107,1.369v2.924H64.857z M17.222,52.535h0.08v0.107    C17.213,52.669,17.215,52.605,17.222,52.535z M31.794,12.844c-0.014,0.07-0.198,0.136-0.188,0H31.794z M41.214,10.214    c0.119-0.029,0.134,0.045,0.215,0.053C41.395,10.317,41.18,10.322,41.214,10.214z M42.797,10.67    c0.063-0.04,0.116,0.009,0.134-0.027c0.036,0.009,0.022,0.068,0.027,0.107C42.878,10.75,42.795,10.753,42.797,10.67z     M45.83,14.132h-0.107v-0.107C45.806,14.012,45.842,14.048,45.83,14.132z M43.28,18.963h0.107c0.002,0.159,0.101,0.22,0.242,0.241    c0.016,0.101,0.02,0.081,0.027,0.215c-0.142-0.056-0.277-0.117-0.456-0.135c-0.004-0.093,0.023-0.156,0.134-0.134    C43.298,19.106,43.263,19.06,43.28,18.963z M43.093,19.661c0.025,0.123-0.067,0.129-0.054,0.241    c-0.128-0.018-0.17,0.002-0.242,0.053c-0.226-0.124-0.495-0.237-0.402-0.536C42.677,19.48,42.835,19.546,43.093,19.661z     M41.912,19.392c-0.046-0.043-0.067-0.113-0.054-0.215h0.107c0.015,0.112,0.028,0.1,0.134,0.081    c-0.007,0.07-0.009,0.134,0.081,0.107c0.013,0.218-0.149,0.261-0.322,0.295c-0.021-0.111,0.041-0.138,0.027-0.242    c0.072,0,0.153,0.01,0.188-0.027C42.048,19.319,41.989,19.43,41.912,19.392z M42.153,19.043v-0.108h0.107    C42.273,19.019,42.237,19.055,42.153,19.043z M42.126,18.935c-0.107-0.085-0.17-0.135-0.322-0.053    c0.015-0.129,0.1-0.187,0.188-0.242c0.012-0.11-0.114-0.083-0.08-0.215c0.11,0.021,0.138-0.041,0.242-0.027    c-0.015,0.039,0.031,0.139-0.027,0.134c-0.031,0.005-0.048-0.005-0.054-0.026c-0.082,0.058,0.152,0.025,0.081,0.161h0.161    C42.295,18.8,42.209,18.867,42.126,18.935z M41.563,18.694c0.008-0.117,0.017-0.233,0.161-0.215v0.161    c0.055,0.079,0.052-0.125,0.161-0.08v0.134C41.792,18.762,41.667,18.748,41.563,18.694z M41.724,18.963    c-0.098,0.017-0.105-0.056-0.107-0.135h0.08C41.719,18.86,41.732,18.901,41.724,18.963z M41.804,17.085v0.107h-0.107    C41.613,17.117,41.73,17.001,41.804,17.085z M40.865,16.842c-0.003,0.069-0.015,0.128-0.054,0.161    c-0.101,0.023-0.095-0.12-0.054-0.161H40.865z M38.96,20.895h0.081c0.038,0.036,0.038,0.152,0,0.188h-0.107    C38.984,20.979,38.864,20.977,38.96,20.895z M38.879,20.063c-0.109-0.008-0.186-0.047-0.295-0.053    c-0.037-0.136,0.094-0.103,0.134-0.161c0.073-0.019,0.054,0.053,0.107,0.054c0.049-0.004,0.016-0.091,0.054-0.107h0.134v0.215    c-0.093,0.021-0.118-0.025-0.134-0.081C38.8,19.952,38.914,19.996,38.879,20.063z M38.879,20.787    c0.015,0.132-0.097,0.135-0.188,0.161c-0.034-0.065-0.098-0.099-0.081-0.215C38.714,20.655,38.828,20.681,38.879,20.787z     M38.584,20.787v0.134h-0.161c0.019-0.117-0.046-0.151-0.027-0.268h0.08C38.464,20.747,38.472,20.82,38.584,20.787z     M38.128,18.963c0.001,0.272-0.237,0.166-0.349,0.214C37.799,19.01,37.938,18.96,38.128,18.963z M40.919,19.715v0.107    c-0.092,0.021-0.128-0.015-0.107-0.107H40.919z M42.261,20.68c-0.175,0.008-0.033-0.231-0.242-0.134    C42.042,20.33,42.31,20.502,42.261,20.68z M41.133,20.707v0.108c-0.089,0.026-0.088-0.038-0.08-0.108H41.133z M41.321,22.827    c-0.066,0.003-0.129,0.004-0.161-0.027c0.005-0.075,0.047-0.115,0.134-0.107C41.317,22.724,41.33,22.765,41.321,22.827z     M42.797,29.133c0.042,0.003,0.103-0.012,0.107,0.027C42.934,29.254,42.74,29.233,42.797,29.133z M46.715,51.059    c0.006-0.128,0.114-0.155,0.134-0.269C46.983,50.856,46.812,51.048,46.715,51.059z M45.615,58.466v0.107h-0.107    C45.495,58.489,45.531,58.453,45.615,58.466z M45.481,58.519c-0.068-0.003-0.138-0.004-0.134-0.08    C45.392,58.393,45.504,58.417,45.481,58.519z M45.32,58.653c0.004,0.104-0.161,0.096-0.188,0.027    C45.099,58.591,45.313,58.615,45.32,58.653z M42.555,36.433c-0.066-0.023-0.098-0.081-0.107-0.161    C42.512,36.297,42.58,36.319,42.555,36.433z M41.482,50.065c-0.026,0.112,0.02,0.196-0.054,0.296    c-0.134-0.013,0.036-0.304-0.161-0.188v-0.108C41.374,50.086,41.375,50.086,41.482,50.065z M41.026,50.254    c0.103-0.03,0.169,0.115,0.107,0.161C41.047,50.411,41.015,50.354,41.026,50.254z M41.08,50.549c-0.097-0.01-0.129-0.041-0.215,0    c-0.032-0.159-0.102-0.326,0.107-0.349C40.943,50.372,41.078,50.355,41.08,50.549z M30.936,32.676v0.054h-0.134    c0.018-0.028,0.062-0.028,0.054-0.081C30.893,32.647,30.931,32.645,30.936,32.676z M28.118,42.9    c0.034,0.16-0.165,0.086-0.161,0.215c-0.16-0.014-0.031-0.135-0.027-0.215H28.118z M27.528,42.632    c0.002-0.15,0.104-0.2,0.107-0.349C27.86,42.305,27.662,42.635,27.528,42.632z M27.608,42.766v0.107    c-0.09,0.027-0.088-0.037-0.08-0.107H27.608z M27.796,42.686c0.012,0.084-0.023,0.12-0.107,0.108    C27.676,42.709,27.712,42.674,27.796,42.686z M35.632,29.214c0.043-0.089,0.079-0.279-0.027-0.349    c-0.068,0.076-0.23,0.056-0.268,0.161C35.449,29.075,35.434,29.251,35.632,29.214z M46.93,30.61    c0.131-0.033,0.149-0.246,0.268-0.242c-0.028-0.105-0.039-0.148-0.054-0.214c-0.171,0.052-0.352,0.094-0.429,0.241    c0.071-0.008,0.088,0.038,0.08,0.108c-0.138,0.04-0.133-0.064-0.215-0.081C46.632,30.599,46.76,30.653,46.93,30.61z     M27.286,33.669c-0.016-0.086,0.05-0.083,0-0.134h-0.08C27.208,33.603,27.21,33.673,27.286,33.669z M29.218,15.071    c0.021-0.128,0.034-0.236,0-0.322c-0.048,0.104-0.177,0.127-0.241,0.215c-0.033,0.087,0.087,0.021,0.054,0.107    c-0.106,0.043-0.183-0.053-0.215,0.054C28.943,15.207,29.123,15.111,29.218,15.071z M37.672,28.114    c0.063-0.008,0.101-0.042,0.188-0.027c0.03-0.097,0.055-0.337,0-0.429c-0.051,0.149-0.199-0.094-0.242,0.08    C37.805,27.774,37.516,27.995,37.672,28.114z M44.139,30.717c-0.185,0.069-0.085-0.148-0.215-0.135    c0.038,0.2-0.259,0.063-0.322,0.161C43.759,30.84,44.057,30.97,44.139,30.717z M42.502,29.349    c-0.009-0.036-0.147,0.039-0.161-0.054c0.019,0.073-0.127-0.019-0.107,0.054c0.031,0.004,0.029,0.042,0.027,0.08    C42.333,29.335,42.47,29.455,42.502,29.349z M11.614,35.199c0.038-0.082-0.013-0.143-0.054-0.215    C11.568,35.065,11.53,35.193,11.614,35.199z M12.016,29.456c0.08,0.032,0.115-0.113,0.054-0.134    C12.04,29.354,11.993,29.37,12.016,29.456z M11.855,29.509c-0.087-0.109,0-0.235,0.108-0.295c-0.005-0.433-0.07-0.678,0.081-1.1    c0.007-0.097-0.049-0.129-0.054-0.215h0.08c-0.025-0.07-0.049-0.158,0.027-0.188c-0.272,0.051-0.128,0.515-0.242,0.805    c-0.053,0.135-0.116,0.391-0.08,0.51c-0.034,0.038-0.131,0.012-0.134,0.081C11.847,29.144,11.623,29.476,11.855,29.509z     M11.265,30.046c0.134-0.024,0.114,0.084,0.215,0.027c-0.046-0.12-0.002-0.181-0.08-0.241    C11.339,29.888,11.255,29.92,11.265,30.046z M20.604,20.25c-0.034-0.21,0.061-0.413-0.081-0.536    C20.516,19.908,20.393,20.18,20.604,20.25z M40.623,13.354c0.103-0.087,0.21-0.078,0.376-0.053    c0.022-0.076-0.038-0.07-0.027-0.135h0.134c-0.037-0.123,0.043-0.253-0.107-0.295c-0.089,0.179-0.51,0.026-0.536,0.269    C40.558,13.195,40.69,13.204,40.623,13.354z M39.416,13.703c-0.056-0.056-0.101,0.036-0.134,0.08    C39.366,13.796,39.391,13.75,39.416,13.703z M40.623,13.408c-0.003-0.052-0.09,0.032-0.161,0c0.033-0.149-0.067-0.166-0.134-0.215    c-0.01,0.124-0.157,0.112-0.188,0.215C40.343,13.391,40.489,13.571,40.623,13.408z M34.076,19.715    c-0.004-0.174,0.111-0.229,0.161-0.349c-0.107-0.06-0.184,0.015-0.268,0.054C34.106,19.524,33.931,19.656,34.076,19.715z     M38.342,14.723c0.037-0.169,0.116-0.295,0.188-0.429c0.063,0.008,0.101,0.042,0.188,0.027c-0.07,0.074,0.107,0.052,0.054,0.188    c0.135-0.036,0.105,0.092,0.188,0.107c0.013-0.031,0.029-0.061,0.054-0.08c-0.13-0.201-0.415-0.247-0.51-0.483    c0.2,0.005,0.316-0.113,0.456-0.054c-0.006-0.086,0.047-0.113,0.027-0.215c-0.277-0.01-0.393,0.142-0.644,0    c-0.065,0.277-0.42,0.24-0.644,0.242c0.02,0.127-0.038,0.177-0.081,0.242c0.096,0.065,0.181,0.141,0.349,0.134    C38.016,14.584,38.179,14.653,38.342,14.723z M44.676,11.395c0.013-0.084-0.038-0.105-0.054-0.161    c-0.073,0.017-0.213-0.034-0.241,0.027C44.473,11.312,44.487,11.44,44.676,11.395z M27.715,31.495    c-0.065-0.046-0.17-0.168-0.242-0.053C27.571,31.426,27.613,31.604,27.715,31.495z M37.591,29.294    c0.047,0.018,0.231-0.054,0.295-0.107c-0.127-0.149-0.063-0.442,0.107-0.51c0.018-0.436-0.292-0.173-0.537-0.161    c-0.064,0.144,0.063,0.118,0.08,0.242C37.615,28.939,37.49,29.232,37.591,29.294z M43.71,16.198    c0.045,0.036,0.042,0.119,0.08,0.161c0.087,0.015,0.125-0.019,0.188-0.027C44.013,16.18,43.808,16.128,43.71,16.198z     M42.744,14.24c0.02,0.073-0.053,0.054-0.054,0.107c0.1,0.043,0.173,0.113,0.242,0.188c0.029,0.339,0.365,0.599,0.537,0.885    c0.139-0.125,0.562,0.322,0.698-0.026c-0.342-0.016-0.482-0.234-0.725-0.349c-0.055-0.422-0.583-0.727-0.376-1.342    c-0.103-0.058-0.123-0.199-0.322-0.161c0.21,0.316-0.211,0.333-0.107,0.671C42.676,14.217,42.735,14.203,42.744,14.24z     M23.663,39.385v0.161c0.171-0.02,0.172,0.12,0.322,0.054C23.926,39.48,23.869,39.357,23.663,39.385z M24.924,16.145    c0,0.036-0.047,0.025-0.054,0.054c0.044,0.001,0.015,0.075,0.054,0.081C24.942,16.226,25.017,16.165,24.924,16.145z     M24.898,27.953c0.054-0.006,0.109,0.119,0.161,0.027c-0.021-0.006-0.031-0.023-0.027-0.054    C24.993,27.941,24.893,27.895,24.898,27.953z M24.763,27.899c-0.008,0.036-0.038,0.052-0.027,0.107c0.05-0.026,0.09,0.08,0.107,0    C24.814,27.988,24.849,27.917,24.763,27.899z M24.549,14.883c0.025-0.064,0.11-0.069,0.161-0.107    C24.627,14.706,24.423,14.835,24.549,14.883z M24.71,14.401c0.023,0.141,0.121,0.087,0.215,0.054    C24.923,14.257,24.83,14.423,24.71,14.401z M25.246,28.436c0.035,0.068,0.157,0.145,0.215,0.107    C25.47,28.427,25.298,28.491,25.246,28.436z M55.142,50.146c-0.147,0.042-0.257,0.12-0.322,0.242    c0.07-0.007,0.115,0.01,0.107,0.081c-0.073,0.132-0.088,0.323-0.322,0.296c-0.059,0.225-0.322,0.421-0.161,0.59    c-0.135-0.055-0.125,0.033-0.269,0.027c0.003,0.083-0.033,0.128-0.054,0.188c-0.1-0.001-0.156,0.041-0.215,0.08    c-0.066,0.064,0.04,0.05,0.027,0.134c-0.254,0.033-0.373,0.36-0.725,0.376c-0.018,0.2-0.159,0.139-0.322,0.161    c-0.027,0.107,0.08,0.08,0.054,0.188c-0.177,0.348-0.323,0.568-0.215,1.073c-0.07,0.315-0.321,0.448-0.429,0.725    c-0.419,0.074-0.22,0.447-0.268,0.805c-0.03,0.227-0.113,0.347,0,0.537c0.508,0.096,0.576-0.247,0.939-0.295    c0.47-0.443,0.674-1.151,1.1-1.637c0-0.18,0.097-0.261,0.107-0.43c0.169-0.054,0.209-0.238,0.242-0.43    c0.083,0.02,0.052-0.073,0.134-0.053c0.042-0.358,0.253-0.438,0.268-0.779c0.047,0.002,0.083-0.006,0.107-0.026    c-0.03-0.192,0.091-0.231,0.054-0.429c0.076-0.022,0.07,0.037,0.134,0.027c0.15-0.383,0.077-0.787,0.161-1.208    C55.157,50.381,55.178,50.235,55.142,50.146z M26.266,41.639c-0.023,0.031-0.036,0.072-0.027,0.134    c0.05-0.004,0.09-0.018,0.107-0.054C26.296,41.717,26.328,41.631,26.266,41.639z M12.177,31.093    c-0.275-0.12,0.074-0.583-0.161-0.617c0.118-0.229-0.026-0.367-0.107-0.483c0.023,0.175-0.164,0.14-0.134,0.322    c-0.063-0.001-0.079,0.046-0.161,0.027c0.016,0.07-0.011,0.096-0.08,0.08c0.083,0.233,0.303,0.447,0.161,0.644    c0.199-0.068,0.267,0.187,0.376,0.295c0.017-0.103,0.022-0.11-0.027-0.187C12.083,31.142,12.153,31.14,12.177,31.093z     M52.968,50.737c0.001-0.063-0.046-0.079-0.027-0.161h-0.081C52.86,50.666,52.861,50.755,52.968,50.737z M55.813,48.831    c-0.105-0.014,0.051,0.086,0.081,0.107v-0.107c0.032-0.004,0.076,0.005,0.08-0.027c-0.031-0.022-0.072-0.036-0.134-0.027    C55.833,48.799,55.839,48.831,55.813,48.831z M12.66,33.588c-0.028-0.09,0.083-0.041,0.134-0.054    c-0.079-0.068-0.052-0.103-0.081-0.188C12.608,33.368,12.575,33.515,12.66,33.588z M23.904,38.768    c-0.043-0.047-0.081-0.098-0.188-0.081C23.634,38.806,23.867,38.921,23.904,38.768z M12.58,34.206    c-0.002,0.079-0.102,0.058-0.081,0.161c0.144,0.019,0.114-0.136,0.134-0.241h-0.081C12.552,34.162,12.566,34.184,12.58,34.206z     M12.499,31.844c-0.162,0.027-0.098-0.17-0.188-0.214c-0.04,0.004-0.099-0.01-0.107,0.026c0.11,0.062-0.086,0.036-0.081,0.081    c0.045,0.063,0.143,0.072,0.134,0.188c0.16-0.042,0.184,0.158,0.268,0.107C12.579,32.011,12.453,31.946,12.499,31.844z     M22.912,39.17c0.034,0.097,0.232,0.084,0.295,0C23.147,39.047,23.025,39.136,22.912,39.17z M23.341,38.473    c-0.016-0.241-0.384-0.22-0.322-0.456c-0.095-0.024-0.066-0.003-0.161-0.027C22.893,38.277,23.136,38.355,23.341,38.473z     M56.162,52.991c0.133,0.008,0.129-0.121,0.188-0.188h-0.134C56.21,52.881,56.11,52.936,56.162,52.991z M23.663,39.063    c-0.112,0.032-0.208,0.028-0.295-0.027c0.001,0.046-0.021,0.069-0.054,0.08c0.038,0.097,0.077,0.192,0.188,0.215    c-0.01-0.157,0.086-0.069,0.161-0.107V39.063z M24.522,27.846c-0.006,0.021-0.022,0.031-0.054,0.027    c-0.001,0.1,0.13,0.067,0.108,0.188c0.047-0.002,0.083,0.006,0.107,0.027C24.664,27.971,24.612,27.89,24.522,27.846z"/>
	</g>
</g>
</svg>